<?xml version="1.0" encoding="utf-8"?>
<!-- Generator: Adobe Illustrator 26.0.3, SVG Export Plug-In . SVG Version: 6.00 Build 0)  -->
<svg version="1.1" id="working_layer_copy" xmlns="http://www.w3.org/2000/svg" xmlns:xlink="http://www.w3.org/1999/xlink" x="0px"
	 y="0px" viewBox="0 0 56 56" style="enable-background:new 0 0 56 56;" xml:space="preserve">
<style type="text/css">
	.st0{fill:url(#SVGID_1_);}
	.st1{fill:url(#SVGID_00000135663150922107235680000006631097473482452639_);}
	.st2{fill:url(#SVGID_00000182521599692715272640000012236790281726642075_);}
	.st3{fill:#68B17B;}
	.st4{fill:none;}
	.st5{fill:#B3DD3D;}
</style>
<linearGradient id="SVGID_1_" gradientUnits="userSpaceOnUse" x1="32.621" y1="27.7542" x2="44.225" y2="59.636" gradientTransform="matrix(1 0 0 -1 0 58)">
	<stop  offset="0" style="stop-color:#73C589"/>
	<stop  offset="1" style="stop-color:#4DB9B4"/>
</linearGradient>
<path class="st0" d="M35.5,31.3c4.9-7.6,8-16.3,8.8-25.8v0.1c0-1.5,1.3-2.8,2.8-2.8h1.6V0H37.5v0.8c0,9.3-2.7,18.1-7.1,25.5
	C32.5,27.5,34.2,29.2,35.5,31.3z"/>
<linearGradient id="SVGID_00000160175664426114893070000005761147768558357137_" gradientUnits="userSpaceOnUse" x1="37.0966" y1="27.2363" x2="52.7501" y2="0.1237" gradientTransform="matrix(1 0 0 -1 0 58)">
	<stop  offset="0" style="stop-color:#73C589"/>
	<stop  offset="1" style="stop-color:#4DB9B4"/>
</linearGradient>
<path style="fill:url(#SVGID_00000160175664426114893070000005761147768558357137_);" d="M54.6,53.2c-1.5,0-2.8-1.3-2.8-2.8V49
	c0-9.2-7.1-16.7-16.1-17.4c1.2,2,1.8,4.4,1.8,6.9c0,0.1,0,0.3,0,0.5c4.2,1.3,7.3,5.3,7.3,10v7l0,0H56v-2.8H54.6z"/>
<linearGradient id="SVGID_00000064329292171086756010000001739209438532781485_" gradientUnits="userSpaceOnUse" x1="-1.6441" y1="0.6491" x2="35.5266" y2="26.6764" gradientTransform="matrix(1 0 0 -1 0 58)">
	<stop  offset="0.3" style="stop-color:#B3DD3D"/>
	<stop  offset="1" style="stop-color:#73C589"/>
</linearGradient>
<path style="fill:url(#SVGID_00000064329292171086756010000001739209438532781485_);" d="M35.7,31.6c-0.1,0-0.2,0-0.4-0.1
	c0.1-0.1,0.1-0.2,0.1-0.3c-1.3-2.1-3-3.8-5.1-5c-7.1,11.7-19,20.2-33,22.8v7H-2c11.2-2,21.3-7.2,29.2-14.8c2-1.8,4.5-2.7,7.1-2.7
	c1.1,0,2.2,0.2,3.2,0.5c0-0.1,0-0.4,0-0.5C37.5,36,36.8,33.6,35.7,31.6z"/>
<g>
	<path class="st3" d="M28.4,29.2c-0.6,0.8-1.1,1.5-1.8,2.2c2.7,1.2,4.6,3.9,4.6,7c0,0.1,0,0.4,0,0.5c0.9-0.3,1.9-0.4,2.8-0.5l0,0
		C34,34.4,31.7,31,28.4,29.2z"/>
</g>
<path class="st4" d="M35.7,31.6c-0.1-0.1-0.1-0.2-0.2-0.3c-0.1,0.1-0.1,0.2-0.1,0.3C35.4,31.6,35.6,31.6,35.7,31.6z"/>
<path class="st5" d="M23.5,21c-3.6,0-7.2,0.6-10.5,1.6V0H1.8v2.8h1.4C4.8,2.8,6,4.1,6,5.6v28.6c2.1-1.7,4.5-3.1,7-4.1
	c3.2-1.3,6.8-2,10.5-2C29.3,28,34,32.7,34,38.5S29.3,49,23.5,49H-2.6v7h26C33.1,56,41,48.2,41,38.5C41,28.8,33.2,21,23.5,21z"/>
</svg>
