<?xml version="1.0" encoding="UTF-8"?>
<svg id="Layer_1" data-name="Layer 1" xmlns="http://www.w3.org/2000/svg" version="1.1" viewBox="0 0 80 80">
  <defs>
    <style>
      .cls-1 {
        fill: #551f75;
      }

      .cls-1, .cls-2, .cls-3 {
        stroke-width: 0px;
      }

      .cls-2 {
        fill: #fff;
      }

      .cls-3 {
        fill: #f07d1a;
      }
    </style>
  </defs>
  <path class="cls-3" d="M16.9,8.1C6.9,16.1,1.8,36.2,2.1,39.8c0,0,0,1,0,1.1-1.5,20,5.3,25,18.8,31.9,23.9,11.9,31.2,6.1,36.1,3,9.1-5.8,18.4-22.5,19.9-28.5,2.6-10.3,1.1-16.6-.3-21.8C72.4,8.5,41.6-11.5,16.9,8.1ZM46.2,1.9c0,0,0,0,0-.1,1.7.2,3.2.6,4.8,1-3.3-.5-.5-.1-4.8-.9h0ZM42.5,1.6s0,0-.1,0c-.2,0-.3,0-.6,0,0,0,.2,0,.3-.1.1,0,.2,0,.4,0h0ZM39.6,4.5c.5,0,.4,0,1,0-.4.1-.2.1-1.4.2.1,0,.3-.1.4-.2ZM30,3.7c.2-.1.3-.1.5-.2.1.1.2,0,.4,0-.2,0-.6.2-.8.2,0,0,0,0,0,0h0ZM53.4,6.8c.5.1,3.4.8,3.9,1-2.3-.4-3.2-.8-3.9-1ZM16.7,10.8c1.2-1.5,7.2-5.6,8.8-6.3-1.1.8-3.5,1.8-8.3,6-.2,0-.4.2-.5.3,0,0,0,0,0,0,0,0,0,0,0,0ZM22.4,8c.6-.7,1.7-1.4,2.1-1.6-.3.3-1.4,1-2.1,1.6ZM17.3,11.3c2.2-2,3.1-2.6,4.7-3.8,0,0,0,0,.1,0-.6.5-4.2,3.3-4.8,3.9,0,0,0,0,0-.1h0ZM59,15.5c0,0,0,0,0,0-.5-.3-2.3-1.2-3.2-1.7,2.1,1,1.4.7,3.1,1.7ZM57.6,15.5c-.1,0,0,0,0,0-1.3-.8-2.5-1.4-4.5-2.4,0,0,.3,0,.4,0,.7.4,2.7,1.3,4.2,2.3ZM48.3,14.8s0,0,0,0h0s0,0,.1,0h0s.3,0,.3,0c0,0,0,0,0,0,0,0,0,0,.1,0-.2,0-.4,0-.6,0-1-.2-.6-.1-1.1-.2.4,0,.7,0,1.1,0,0,0,0,0,0,0,0,0,0,0,0,0h0ZM26.3,10c.4-.4.2-.3.8-.6-.4.3-.3.3-.8.6ZM30.8,10.2s0,0,0,0c-.2,0-.4.1-.5.2.4-.2.4-.2.4-.2ZM21,9.9c.1-.2.3-.4.4-.5.2-.1.3-.3.5-.4,0,0,0,0,0,0-.6.6-.2.3-1,.9h0ZM22,9.7c0,0-1.5,1.6-1.6,1.7.9-1.2,1.1-1.3,1.6-1.7ZM32.2,10.6c-.8.6-.3.3-1.9,1.2,1.1-1,.9-.8,1.9-1.2ZM52.4,13.8c-1.2-.5-1.2-.5-1.2-.5.1,0,.2,0,.3,0,.8.4.4.2,1.3.6-.2,0,0,0-.4,0h0ZM50.7,13.6c-.1,0-.3,0-.4,0-.2,0-.5-.2-.7-.3.4,0,.1,0,.5,0,.2.1.2,0,.7.3h0ZM36.9,12.1h-.4c.2,0,.2,0,.8-.2,0,0-.4.2-.4.2ZM32.2,11.5c.7-.5.4-.3,1.2-.7,0,0,0,0,0,0-1.2.6-1.2.6-1.2.6ZM53.7,14.4c0,0,0,0,0-.1,1,.5.9.4,2.5,1.3h0c-1.2-.6-.6-.3-2.5-1.2h0ZM38.2,11.8c0,0,.4-.3.5-.4.4,0,1.2-.2,1.5-.3-.8.3-2,.7-2,.7ZM17.3,12.2s0,0,0,0c0,0,0,0,0,0,.6-.6,2-1.9,3.3-2.9-.2.2-3.2,2.8-3.4,3h0ZM21.8,11.5c.3-.1.8-.4,1.1-.6-.9.8-.1,0-2.2,1.8.1-.2.9-1.1,1.1-1.2ZM25.1,12.4c-.7.6-.5.5-1.1.9.4-.5.5-.6,1.1-.9ZM33.1,12.8c-.4.2-2.2,1.3-2.6,1.5.9-.6,1.5-.9,2.6-1.5ZM34.8,13.2c-1.7.9-3.4,1.9-4.2,2.5.2-.2.2-.2.3-.4,0,0,3.4-2,3.4-2h0s0,0,0,0c0,0,.2-.1.3-.2,0,0,.1,0,.2,0ZM55.1,17.3h-.5c0-.2-.1-.3-.2-.3.2,0,.5.1.7.2,0,0,0,0,0,.1ZM53.6,16.8c0,0,0,0,0,.1-.7-.2-.9-.3-1.8-.5,0,0,0,0,0,0,1.9.5.8.2,1.8.5h0ZM36,16c-.2,0-.4,0-.6.1.6-.3.4-.2,1.1-.4-.7.3,0,0-.5.2ZM20.9,15.4c.2-.2.8-.8,1-1.1,0,0,.2-.1.3-.2-.1.1-1,1.1-1.2,1.2,0,0-.1,0-.1,0,0,0,0,0,0,0ZM57.8,21.2h0c.2.3,2.3,2.5,2.6,2.7,0,0,0,0,0,0-1.2-1.4-.3-.3-3.1-3.3.2.2.7.7.6.5h0ZM61.3,23.3c-.6-.7-.7-.8-1.6-1.7.7.7-.2-.3,1.7,1.7,0,0,0,0,0,0ZM28,21.1c0,0,0-.2,0-.2.7-.5,3.1-2.1,3.7-2.6-.1,0-.2.2-.1.4-3.9,2.6-2.7,1.9-3.5,2.4ZM48.2,22.2h0c-.3,0-1.2.1-1.3.1.6,0,.5,0,1.2-.1h0ZM38.9,21.9c1.2,0,2.5.1,6.2,0-1.5.2-1.8.5-6.2,0ZM47.4,25.1c-.3,0-.4,0-.6,0,1.3-.2,2.7-.4,4-.6h0c0,0-3.1.6-3.5.7ZM34.4,23.8c.6.1.7.1.7.1,0,0,0,0,0,0-.2,0-.5-.1-.7-.2h0ZM22.9,22.2c.2-.6.2-.7.4-1.2,0,0,.1-.1.2-.2,0,.3,0,.3,0,.4,0,.2-.2.4-.3.6,0,.1-.2.2-.3.3h0ZM41.2,26.1h-.1,0c-1.2,0-1.3,0-2.1-.2,1.3,0,.7,0,2.3.3,0,0-.2,0-.2,0h0ZM34.8,37.2s0,0,0,0c-2.4-.7-2-.5-2.6-.8.9.3,1.8.5,2.6.8ZM54,42c0,0,0,0,0,0,1.3-.6,1.4-.6,3.5-1.5,0,0,0,0,0,0-2.3,1.1-2.8,1.3-3.5,1.5h0ZM28.8,40.1c-.1,0-.2,0-.4-.1-.3-.3-.3-.3-.7-.5.5.2.5.3,1,.7ZM60.5,43.6c-1.5,1.7-1.2,1.3-2.3,2.4,0,0,0,0-.1,0,1-1,2.2-2.3,2.4-2.5,0,0,0,0,0,0h0ZM53.8,45.9c0,0,.2-.2.3-.3.2,0,.4-.1.5-.2-.1.1-.2.2-.3.4-.1,0-.3,0-.5,0h0ZM50.3,47.9c-.2,0-.2,0-.4,0,2.8-.9,1.7-.5,3.4-1.1,0,0-.1.1-.2.2-1.1.4-2.5.8-2.9,1h0ZM58.4,50.5c-.2,0-.3,0-.5.1,0,0,0,0,.4-.3.2,0,.4-.1.6-.2,0,0-.5.4-.5.4h0ZM56.3,51.1c.6-.3.4-.2,1-.4-.1.1,0,0-.3.2-.2,0-.4.1-.6.2,0,0,0,0,0,0,0,0,0,0-.1,0ZM53.6,52.4c.3-.1,1.1-.5,1.3-.6.5-.1.5-.1,1.5-.3,0,0,0,.1-.1.3-.8.3-.3.1-2.6.6h0ZM52,52.4s0,0,0,0c.7-.3.4-.2,1.2-.4l-1.1.4h0ZM58.8,52c.1,0,.2,0,.3-.1,0,0,0,0,0,0-.1,0-.4.1-.5.2,0,0,.1,0,.2-.1h0ZM50.3,52.2c0-.1-.1,0-.2,0,.3,0,3.3-1,3.5-1-2.1.9-1.4.7-3.3,1.1h0ZM26,50.9s0,0,0,0c-.1-.1-3.3-1.3-3.4-1.4,0-.1,0-.2,0-.3,3.3,1.4.6,0,3.5,1.6h0ZM65.5,60.6c.9-.9,4.1-3.5,3.8-3-.7.6-2.2,1.9-3.8,3h0ZM53.2,56.6h0c-5.2,3.8-5.6,4,0,0ZM48.1,59.7s0,0,0,0c.4-.3.7-.5.7-.5.1,0,0,0,.1,0-.3.2-.5.4-.8.6h0ZM46.7,59.8c-.2,0-.3,0-.5.1l.3-.2c.2,0,.3,0,.5-.1-.1,0-.2.1-.3.2h0ZM42.3,60.1c2.1-1,1.3-.8,3.2-1.2-1.9,1-1.5.8-3.2,1.2ZM45.2,60c0,0-.1,0-.2.1h-.5c.1,0,.1,0,.2,0,.2,0,.4,0,.6-.1ZM42.7,62.5c-1.5,0-1.6,0-2.2,0,.8-.3,1.9-.2,2.6-.1,0,0-.4,0-.4.1h0ZM49.9,64c.1,0,.2,0,.3-.1.2,0,.5,0,.7,0,0,0-.1,0-.2,0-.3,0-.6,0-.9,0h0ZM20.8,59.9c-.9-.1-1-.1-1.9-.5.1,0,.2,0,.2-.2.2,0,.9.3,1.2.4,0,.1.3.2.5.2ZM15.7,59.9s0,0,0,0c-.1,0-.5-.3-.4-.2-.6-.3-1.9-1.1-3.2-2.1,0,0,0-.1,0-.2,2.5,1.7,2.2,1.5,3.6,2.5h0ZM37.1,62.4c-.4,0-2.3,0-1.9,0-.3,0-.7,0-1,0h0c0,0-.7,0-.7,0h-.6c-.4-.3-1.5-.7-2-.8.2,0,2.9.6,3.1.4,3,.3,2.1.1,3.1.4,0,0,0,0,0,0,0,0,0,0,0,0h0ZM23.6,60.8c-1.4-.1-3.6-.4-5-.7,0,0,0,0,0,0,3.3.4,3.9.3,5,.7ZM28,61.1c.5,0,2.6.8,3.3,1.1-1.3-.2-2.1-.5-3.3-1.1ZM26.3,61c.6,0,.3,0,.9,0,0,0,0,0,.1,0-.8,0-.7,0-1.1-.2ZM57.2,70.1s0,0,0,0c1.4-1.2.6-.5,2.1-1.8-1.5,1.5-1.2,1.2-2,1.8ZM49.9,70.7c0,0,0-.1,0-.2.7-.3.8-.4,1.5-.6-.5.4.2.2-1.5.8ZM12,64.1c.7.5,1.4.9,1.9,1.2h0c-.2,0-.5-.2-.7-.3-.1,0-1.2-.9-1.3-1h0ZM20.1,64.2c1.1,0,1.3.2,2.4.6-1.8-.5-1-.2-2.4-.6ZM29.9,65.4c0,0,0-.1,0-.2,3.4,1.1,1.6.5,4.5,1.4-4.2-1-3.4-.8-4.4-1.3ZM9.6,61.2c0,0,.1,0,.2,0,.1,0,1.9,1.3,2,1.4,0,0,0,0,0,0-.7-.4-1.4-.9-2.1-1.3h0ZM27.3,62.2c0,0,.1,0,.2-.1.9.3.8.3,1.3.4,0,0,0,0,0,.1-.7-.1-1.8-.4-2.3-.5.6,0,.2,0,.9,0ZM26.6,61.8c-1.7-.2-2.9-.2-4.3-.7,3.7.4,2.6.2,4.3.7ZM38.1,64.1c0-.2-.5-.4-.8-.5,2,0,2.2,0,3.7.4-1.4,0-1.6,0-3,0ZM36.5,63.8c-.8,0-2.4-.3-3.3-.5-.4-.2,0,0-1-.5,1.5.3,1.3.3,2.8.6,0,0,0,0,.1.1,0,0,.2,0,.2,0,.6,0,.2,0,1.2.2h0ZM36.8,63.3c-1.5,0-1.1,0-1.7-.2,1.4,0,1.1,0,1.7.2ZM33.9,62.9h-.7c0-.2,0-.2,0-.2.2,0,.5,0,.7,0,0,0,0,0,0,0h0ZM45.5,64.8c1.4,0,1.5,0,2,0-.7,0-.5,0-2,0ZM43.8,64.5s0,0-.1,0c0,0-.1,0-.2,0,.4,0,1.2,0,1.6,0-.4,0-1,0-1.3,0h0ZM29.1,62.2c1.7.3,1.3.2,2.7.8-.7-.1-.2,0-1-.2-.2-.1-1.5-.6-1.8-.7h0ZM20.5,61.4c.6.1,4.1.9,4.6,1.1-1.9-.3-3.5-.7-4.6-1.1ZM38.5,66.3c-.1,0-.2-.1-.3-.2,1.3.1,1.4.1,2,.2h-1.7c0,0,0,0,0,0ZM37.5,66.3c0,0-.2,0-.3,0,0,0-.6-.3-.7-.3.3,0,.6.2,1,.3ZM19.8,63.5c-.9-.2-.7-.2-1.2-.3.2-.2,0-.2-.2-.3.4,0,1,.4,1.3.6h0ZM34.5,65.6c-.3,0-2.8-.7-2.8-.7,0,0,.1-.1,0-.2.4.1,2.2.8,2.7.9ZM35.2,64.8c-.2,0-3.7-1-3.8-1.1,0,0,0,0,0,0,1.4.3,2.7.6,3.3.8.1,0,.3.2.2,0,.1,0,.2.1.4.2h0ZM22.7,62.7c-1.2-.2-1-.1-2-.5.2,0,1.9.5,2,.5ZM25.9,63.1s0,0,0-.1c.9.2,1.7.2,4.2,1.2-1.5-.3-3.2-.7-4.3-1h0ZM37.9,65.2c.2,0,.5.1.6,0,1.7,0,1.1-.1,3,.2-3.8.3-5.2,0-5.2,0h-.2c0-.1,0-.1,0-.2.6,0,1.8,0,1.8,0h0ZM44.4,66.2c-.7.2-.9.2-1,.2-1.4-.2-2.9-.3-4.6-.5,5.5.2-.7-.1,5.6.3ZM44.8,66.4c.1,0,.3,0,.4-.2.4,0,4.4.2,4.7.2,0,0,0,0,0,0-1,0-2.4,0-5,0h0ZM20,62.3c-.2,0-.9-.1-1.1-.2-.5-.3-.3-.2-.9-.5.8.3,1.1.4,2,.7h0ZM38.4,64.5c.7,0,1.7.1,2.4.2-1,0-.9,0-2.4-.2ZM16.2,62.1c1.9,1,.7.4,1.9,1-.2,0-.4,0-.6-.1,0,0-1.2-.8-1.4-.9ZM14.5,62.8c-.2,0-.1,0-.2,0-.9-.6-1.3-.7-4.2-2.8,0,0,0,0,0,0,1.1.8,3.3,2.2,4.4,2.9h0ZM45.2,67.3c-4.1,0-3.2.1-6.1,0,4.3,0,4.9,0,6.1,0ZM36.9,67.6s0,0,0,0c.2,0,.4,0,.6,0-.2,0-.4,0-.6,0ZM36.6,67.6c0,0-.1,0-.2,0-.5-.1-1.3-.3-1.4-.3.4,0,1.1.2,1.5.3h0ZM34.3,67.2c-.1,0-1-.2-1.3-.3,0,0-.3-.2-.4-.2.6.1,1.1.3,1.7.4,0,0,0,0,0,0ZM32.6,67.4c-1.3-.3-.2,0-3.4-.8,0-.2-.6-.5-.9-.6.4.1,3.9,1.3,4.2,1.4h0ZM42.2,68.5c-.4,0-.8,0-1.2.2-.2,0-1.1-.2-1.2-.2.4,0,2,0,2.4,0h0ZM30.3,66.1s0,0,0,0c.6.1.4,0,1.1.4-.8-.3-.4-.1-1.1-.4ZM20.5,65s-1.3-.4-1.9-.7c0,0-.1,0-.2,0,0,0,.2,0,.3,0,.9.4,1.3.5,1.8.7h0ZM18.8,64.9c-.2,0-.3,0-.5-.1,0,0-.2-.1-.2-.2.8.3.7.3.7.3ZM14.7,65.3s0,0,0,0c-.6-.4-1.1-.6-2.5-1.5,1.1.5.3,0,2.6,1.6h0ZM37.1,68.3c.5,0,0,0,3,.8-.6,0,.4.2-3-.8ZM33.5,68c-.5,0-.2,0-1.2-.3.4,0,.8.2,1.2.3ZM30.4,67.6c-.7,0-.2,0-2.7-.8.3,0,2.5.6,2.7.8ZM47.9,69.1c1.2,0,.7,0,1.5-.1,0,0,0,0,0,.1-.5,0-.9,0-1.4,0h0ZM51.7,69.1h0c.3-.2.2-.1.5-.3,0,0,0,0,.1,0-.2.1-.4.2-.6.4h0ZM43.8,68.7c1.4-.2,4.7-.5,6.1-.6,0,0,0,0,0,0-.7,0-4,.5-6.1.5h0ZM46.3,67.7c1.4-.2,3.1-.4,3.7-.4-.1,0,0,0-.4.3-2.4.3-.9.2-3.3.2h0ZM52.8,68.3c2-1.4,2-1.3,2.8-1.7-.8.5-1.3.9-2.8,1.8,0,0,0,0,0,0h0ZM55,68.3h0c.8-.6,2.3-1.6,3-2.2,0,0,0,.1,0,.2-2.3,1.7-2.3,1.7-2.9,2.1,0,0-.1,0-.2,0h0ZM21.7,59.6c1.5.2,2,.3,3.4.5-.8,0-2.3-.1-3.4-.5ZM18.7,58.8s-.5-.3-.5-.3c.2,0,.4.1.6.2,0,0,0,0,0,.1h0ZM33.5,60.9s-.7-.2-.7-.2c2.4.4,1.6.2,2.5.4,0,0,0,0,0,0,0,0,0,0,0,0-.6-.1-1-.2-1.8-.3ZM51.6,63.3c.6,0,0,0,1.1,0-.6.2-.1,0-.7.3-.4,0-.5,0-.8,0,.2,0,.3-.1.5-.2h0ZM31.5,60.6c-1.2-.2-1-.2-3-.5,2.8.2,1.5,0,3,.5ZM17.6,59.1c-1.5-.5-1.2-.4-3.3-1.6,0,0-.1-.2-.2-.3.4.2,2.8,1.4,3.5,1.8h0ZM32.1,56.8c-.7.1-1,.2-2.3.4h-.2c2.6-.4,1.7-.4,2.6-.4h0ZM24.2,55.5c-1.4,0-2.8,0-4.2-.2-.2,0-1-.4-1.2-.5,1.1.2,3.1.4,5.4.6ZM36.1,56.7c-.4,0-5.1.9-5.4.9,1.3-.3,5.4-.9,5.4-.9ZM14.6,52.5c.1,0,.3.1.4.2.3.2.3.2.3.2-.1,0-.3-.1-.4-.2,0,0-.1-.1-.2-.2h0ZM7,47.5c.8,1.2.8,1.3,1.9,3-.2-.2-.4-.3-.5-.5-1-1.8-.7-1.1-1.3-2.5h0ZM6.5,40.3c.2.7.5,1.9.9,3.2-.3-.7-.8-2.1-.9-3.2ZM6.8,40.2c.4,1.4.6,1.8,1.3,3.8,0-.1-.2-.4-.3-.4-.1-.4-.6-2.1-1-3.4h0ZM9,40.2v-.7c.2.3.4,1.3.4,1.5,0,0,0,0-.1,0,0-.3-.2-.6-.2-.9h0ZM6.9,36.1c0,0,0-.2-.1-.2,0,0,.1-2.8.2-2.8,0,0,0,0,0-.1,0,.4-.1,2.3-.1,3.1ZM8.4,33.2s0,0,0,0c0,3.3,0,1.4-.2,4,0,0,0,0,0-.1,0-.7.2-3.1.2-3.9h0ZM13.5,26.2c-.1,1.1,0,.4-.5,2,0-.5,0-.4.5-2ZM10.9,27.8c0,0,0-.2,0-.3,0-.1,0-.2.2-.3,0,.2,0,.3-.2.6h0ZM31,26.9h0c1.6.8,1.8.9,2.4,1.2,0,0,0,0,0,0-.5-.3.1,0-2.3-1.3ZM29.6,25.5c0,0,0-.2,0-.3.2.1.4.3.6.4v.2c-.2-.1-.4-.2-.6-.3ZM27.4,25.4v-.3s0,0,.1.1c0,0,0,0,0,.1,0,0,0,0-.1,0ZM39.6,26.9c-.2-.1-.5-.2-.7-.3l1.2.2s0,0,0,0c-.4,0-.2,0-.5,0ZM42.7,27.3c-.4,0-.9.2-1,.2-.3,0-1.1-.2-1.3-.3,2.4,0,2,0,2.3,0h0ZM38.2,26.9c-1.3-.3-1.5-.4-2.5-1,1.5.4.5,0,2.5,1ZM34.4,25.7c-.6-.2-1.4-.5-1.7-.6,0,0,.9.2,1,.3,0,0,.1,0,.7.4h0ZM30.4,24.8s0,0,0-.1c2.4,1.5,4.9,2.9,0,.1ZM36.9,27.2c-.4-.2-.7-.3-1-.5.6.2.4,0,1.1.5,0,0,0,0,0,0ZM31.6,26c0,0-.7-.5-.8-.5.7.4.8.5,1.7,1,0,0-.1,0-.2,0-.3-.2-1.1-.6-.8-.5h0ZM31.6,26.6s0,0,0,0c-.3-.1-.5-.3-.8-.4,0,0,0,0,0-.1.5.4.4.3.9.5h0ZM30.3,26.4h0c0,0-.6-.3-.6-.3,0,0,0,0,0,0,.3.1.3.2.6.3ZM29.3,26.4s0,0,0,.1c-.2-.1-.2,0-.2-.2h.2c0,.1,0,.1,0,.1ZM40.8,28.5c-.2,0-.4-.2-.6-.3,1,.2,1.2.2,1.2.2.1,0,.2,0,.3.1-.1,0-.8,0-.9,0ZM34.1,27.4c-.5-.1-.3,0-.8-.4,0,0,.2,0,.3,0,.2.1.4.2.6.3h0ZM27.8,26.5s0,0,0,0c0,0,0-.2-.1-.2,0,0,0,0,0,0,0,.1,0,0,0,.3h0ZM29.9,26.8c.2.1.4.2.6.4,0,0,0,0,0,0-.2-.1-.3-.1-.6-.3,0,0,0,0,0,0ZM15.2,25.7c0,.5,0,.2-.3,1.3,0-.2,0-.5,0-.7,0,0,.2-.5.2-.6h0ZM42.7,36.9c.4,0,1.8,0,2.2.1-.7,0-1.6,0-2.2-.1ZM32,35.4c-.2,0-1.1-.4-1.3-.4,0,0,0,0,0,0,.4.1,1,.3,1.4.5ZM38.6,36.8c-.2,0-.8-.2-1-.2.2,0,.4,0,.5,0,.2,0,.3.1.5.2h0ZM25.9,35.3c-1-.6-.9-.5-1.2-.8.8.5.5.2,1.2.8ZM27.5,35.4s0,0,0-.1c1.1.5,1.3.5,1.9.8-.5-.2-1.3-.3-1.8-.6h0ZM29.5,35.7c1.1.3.8.2,1.2.4-.1,0-1.1-.4-1.2-.4ZM46.3,38h.3c-.2,0-.4.2-.6.2h-.4c.3,0,.4-.1.8-.2h0ZM32.1,37.4c-2.1-.7-1.5-.5-2.5-.9,2,.6,1.7.5,2.5.9ZM37.4,38c.9.1.3,0,1.4.3-.6,0-.8,0-1.4-.3ZM26.7,36.8c-.5-.3-.4-.2-.7-.5l.4.2c.1,0,.2.2.3.3ZM29.2,38h0s-1.3-.6-1.3-.6c-.1-.1-.2-.2-.3-.3,1.4.7,1,.5,1.6.9ZM22,39.1c-.1-.1-.5-.5-.7-.6-.4-.6-.9-1.7-1.1-2.2,1.4,2.1.9,1.2,1.7,2.8ZM48.3,43.6c0,0-.2,0-.2,0-.2,0-.4,0-.5,0,.2,0,.7-.2.8-.2,0,0,0,0,0,.1ZM28.2,43.5s0,0,0,0c-1.1-.8-2.4-1.9-2.4-1.9-.2-.2-1-1.1-1.2-1.3-.2-.5,0,.1-.3-.6.2.2.4.4.6.6,0,0,0,0,0,0,0,0,.4.4.5.4.4.3,0,0,.5.4.1.2.2.2.3.3,0,0,.2.2.3.2.9.8,1.5,1.3,1.9,1.7h0ZM37.2,44.3c-.1,0,0,0-.2,0-2-.8-1.9-.7-2.8-1.2.9.4,2.1.8,3,1.1ZM49.2,47.1c.2,0,.4-.1.6-.2.2,0,.4,0,.6,0l-.7.2c-.1,0-.4,0-.5,0h0ZM46.5,47c-.1,0-.1,0-.2,0-.3,0-1.2,0-1.4-.1.1,0,.2,0,.3,0-.3,0,1,0,1.3,0h0ZM43.7,46.6h-.4c.3,0,.9,0,1.2,0,0,0-.8,0-.8,0h0ZM34.9,45.5c-2.7-.9-2.5-.9-3.6-1.6,2,.7.5.3,3.6,1.6ZM29.2,45.3c-.1,0-.1,0-.1.1-.3-.3-.6-.7-.8-.9.3.3.6.5,1,.8h0ZM44.5,47.7c.6,0,.5,0,.9,0-.2,0-.7,0-.9,0ZM49,48.3c-.4.1-.1,0-.5.1,0,0-.2,0-.3,0,.1,0,.2,0,.3-.1,0,0,.3,0,.4,0h0ZM51,48.7c-1.2.4-1.2.4-1.9.6.2,0,1.6-.6,1.8-.6,0,0,0,0,0,0h0ZM19.9,46.2c-.3-.3-.8-.8-1.2-1.1,0,0,0,0,0-.2.4.4.8.9,1.2,1.3h0ZM21.9,47.2c-.4-.3-1-.9-1.3-1.3.1.1,1.2,1.1,1.3,1.3ZM20.2,47.9c-.1,0-.2-.1-.4-.2-.4-.4-.6-.6-1-1.1,1,.9.7.6,1.4,1.2h0ZM22.1,48.7c-.1,0-.2,0-.3-.1,0,0-.5-.5-.7-.7.3.2.7.6,1,.9h0ZM26.3,52.7h0c-.2,0-.4,0-.5,0,1.7,0,6.6-.6,6.6-.6.3,0,1.3,0,1.7,0-2.7.5-2.5.6-7.8.6h0ZM43,53.3c-1.2.3-.7.2-2.4.3,1-.2.7-.1,2.4-.3ZM47.6,54.9c.4,0,.8,0,1.1-.1,0,0,0,0,0,0h-1c0,.1-.2,0-.2,0h0ZM59.7,57.8c-.1,0-.2,0-.3,0,.2-.1,1.1-.8,1.3-.9-.8.7-.7.6-1,.8h0ZM54.7,58.5s0,0,.1,0c.6-.2.4-.1,1.2-.4-.1,0-1.2.4-1.3.5h0ZM44.4,55.6c2.2-.2,1.3-.1,3.3-.4,0,0,.5,0,.5.1l-3.8.3h0ZM43.2,59s0,0,0-.1c.6-.1.2,0,1.8-.4-.3.1,0,0-.8.4,0,0-.9.1-.9.1h0ZM31.5,58.2c.1,0,3.7-.4,3.8-.4-1.3.2-2.8.5-3.2.5,0,0-.5,0-.6-.1h0ZM44.7,56.8c-.1,0-.3,0-.4.2-2.6.5-6,1-8.7,1.2,2.3-.5,4.8-.6,9.1-1.4h0ZM23.5,54.6s0,0,0,.1c-.2,0-2.9-.3-3-.3-.2,0-.1,0-.6-.3,3.8.6.7.1,3.7.5h0ZM26.7,55c-1.2,0-1.6,0-2.3-.2.4,0,1.9.2,2.3.2ZM45.5,56.1c-4,1-5.9,1.2-8.9,1.1l8.9-1.1ZM46.4,56.7c.2,0,1.4-.4,1.6-.4h.4c-.1,0-1.4.3-1.9.4h0ZM50.5,57c0,0-.9.5-1,.5,0,0,.9-.5,1-.5ZM46,58.4h0s0,0,0,0c0,0,0,0,0,0h0c0,0-.3,0-.3,0,1.1-.6.7-.4,2.2-.8-.3.2-.6.3-.9.5-.2,0-.9.2-1,.3h0ZM45.2,57.8s.7-.2.7-.2c0,0,0,0,0,0l1.3-.3c-.6.3-1.3.4-2.1.6h0ZM48.1,58.3s-.8.5-1.3.8h-.6c.4,0,1.5-.7,1.9-.8ZM49.9,57.8c-.2.2-1.2.7-1.4.9-.1,0-.2,0-.3,0,.2-.1,1.5-.9,1.7-1h0ZM49.2,58.8c.8-.6,1.6-1.1,2.7-1.9,0,0,0,0,0,0-1.2.9-.5.4-2.8,2,0,0,0,0,0,0h0ZM48.7,57c.8-.4.5-.3,1.2-.5,0,0,0,0,0,0-.4.2-.2.1-1.2.4h0ZM56.2,56.8c-1.6,1.1-1.1.8-2.6,1.3.8-.5.7-.5,1.6-1.1.5-.1.6-.2,1-.3h0ZM58.5,57.1c-.5.3-1.1.7-1.6,1h0c.2-.2,1.4-.9,1.6-1h0ZM58.1,58c-.1,0,0,0-.2,0,1.7-1.2.8-.5,1.3-.9-.3.2-.7.6-1.1.9h0ZM22.8,52.6c-.9,0-.3,0-.7,0-4.7-1.7-3.8-1.3-4.8-1.9h0c0,0-.2,0-.3-.1,2.3.8,3.9,1.3,5.8,1.9,0,0-.1.1,0,.2h0ZM14.8,51.9c-.2,0-.3-.1-.5-.2-.2-.2-.5-.4-.8-.6.5.2.6.3.7.3,0,0,.2.2.5.4h0ZM16.4,51.6c.5.2.3,0,.7.3-.2,0-.3-.1-.5-.2,0,0-.2-.1-.2-.2h0ZM19,52.1s0,0-.4-.3c.1,0,.7.4.9.5-.2,0-.3-.1-.5-.2h0ZM11.4,49.2s1.7,1.3,1.7,1.4c0,0-.2,0-.2.1,0,0-.8-.6-1-.8,0,0-.5-.7-.5-.7h0ZM9.6,48.2c-.2-.3-.4-.7-.5-1.1.1.1.3.3.4.4.2.4.1.3.3.7,0,0-.2-.2-.3,0h0ZM19.7,50.6c0,0,0,0,0,.1-.7-.3-2.1-.8-4.4-1.9,3.3,1.3,2.6,1,4.5,1.7ZM28.8,51.7c-.9,0-.7,0-3.4.4,0,0-.3-.1-.4-.2,1.1,0,1.2,0,3.8-.2h0ZM24.5,51.4c0,0,0-.1,0-.2.7.1-.2,0,.8.2,0,0-.5,0-.7,0ZM23.9,51.4h-.2c-.4-.1-1.3-.5-2.4-.9.5.1,1.5.6,2.5.9h0ZM14.4,50h-.1c-.2-.2-.5-.4-.7-.5.7.4.2.1.8.5ZM14.8,49.7c.1,0,.3,0,.4.1,0,0,.1,0,.2.1-.1,0-.5-.2-.6-.3ZM15.1,48.5s0,0,0,0c0,0,0,0,0-.3.1.2.1.3.1.3h0ZM11.7,48.2s-.1-.3-.2-.4c.2.1.3.3.5.4,0,.1.2.3.2.4-.2-.1-.4-.3-.5-.4h0ZM12.7,48.1h0s1.3.9,1.3.9c0,0-.2,0-.2,0-.4-.3-.8-.6-1.1-.9h0ZM13,49s0,0,0,.1c0,0-.2-.1-.2-.2,0,0,0,0,0-.2,0,0,.2.1.3.2ZM15,49.2c.9.4.3.2,2.3,1-1.4-.5-1.5-.5-2.3-1ZM12.7,49.5s0,0-.1,0c-.2-.2-.4-.3-.6-.5,0,0,0,0,0,0,0,0,.6.4.7.5h0ZM14,50.8c-.2-.1-.3-.3-.5-.4,1.2.6.5.1,1.4.7,0,0-.4-.1-.9-.3h0ZM17.1,51.4c0,0-.2-.1-.2-.2.2,0,.4.1.6.2l.3.2c-.6-.2-.2,0-.7-.3ZM25.9,52.4c7.5-.8,5.4-.7,7-.6h-.2s0,0,0,0c0,0-.3,0-.4,0-1.2.1-4.8.5-6.4.6h0ZM24.1,50.8c-1.3-.3-.3,0-4.8-1.7,0,0,0,0,0,0,2,.8,3.9,1.5,4.7,1.8h0ZM18.9,48.9c-.6-.2-.8-.4-1.4-.6,0,0,0,0,0,0,.7.3.5.2,1.2.5,0,0,.2.2.2.2h0ZM13,47.7c0,0,0,0-.1,0,0-.1,0-.3-.1-.4,0,.1.1.3.2.4h0ZM18.8,48c-.3-.3-.2-.3-.2-.3.1,0,.2,0,.4.2.4.3.1.1.5.4-.2,0-.4-.2-.6-.3ZM7.8,40.9c.7,2.1.5,1.7.8,2.4,0,0,0,0,0,0-.5-1.4-.6-1.9-.7-2.4ZM14,41.5c0,0,0-.1,0-.2,0-.3,0-.2,0-.4,0,.2,0,.4,0,.6h0ZM17.7,40.3c0-.2,0-.3,0-.5.4.6,1.3,1.8,2.1,2.8h0c-.6-.6-1.6-1.7-2.1-2.3h0ZM17.7,32.9c.3.7.4.9.8,1.8-.2-.3-.6-1-.7-1.1,0-.1-.1-.5-.1-.4,0,0,0-.2,0-.3ZM15.4,28.9c0,.1,0,.3-.1.4,0-.2.1-.4.2-.6,0,0,0,.2,0,.2h0ZM16.1,28c-.1.4-.3,1.2-.4,1.7,0-.3,0-.5,0-.7,0,0,.3-.9.4-1ZM14.7,30c0-.1,0,0,0-1,0,0,0-.2.1-.3,0,.8,0,.6-.2,1.2ZM16.4,28.6c0-.2.1-.5.2-.6,0,.3-.3,2-.5,3.7,0,0,0,.1,0,.2,0-.3.4-3,.4-3.2ZM23.9,28.3c0-.2-.1-.2-.2-.4,0,0,0,0,0,0v.3c.2,0,.2,0,.2.2h0ZM46,31.7c.3,0,.2,0,.7,0,0,0,0,0-.1,0-.2,0-.2,0-.6,0h0ZM26.2,29.1c0,0,0-.1,0-.2,0,0,0,.2.1.2,0,0,0,.1,0,.2,0,0,0-.2-.1-.2ZM38,30.5c.1,0,.2,0,.4,0,0,0,.2,0,.3.1h-.3c-.1,0-.2-.1-.3-.2ZM15.9,27.4s-.1.3-.2.4c0-.1,0-.3,0-.4,0,0,0,0,.1,0h0ZM61.9,33.3h0c-.2.6-.3,1.1-.8,2.8h0c.2-.6.4-1.3.9-2.8h0ZM48.6,36h0c2.3-.9,1.7-.7,2.9-1.2,0,0,0,.1,0,.2-.9.3,0,0-2.8,1h0ZM24.3,33.3s-.4-.3-.4-.3c0,0,0,0,0-.1.1,0,.2.1.3.2,0,0,0,.2.2.2h0ZM19.6,34c-.1-.1-.2-.2-.3-.3-.4-1.3-.2-.7-.5-1.7.1.3.7,1.9.8,2ZM20.4,33.4l.3.3c0,0,0,.2.1.3,0,0,0,0,0,0,0,0-.2-.1-.2-.2,0-.2-.1-.3-.2-.5h0ZM23.4,29.4c0,0,0-.2-.1-.2,0,0,0,0,0,0,0,0,0,.3,0,.3ZM17,29.1c0,.3-.2,1-.3,1.3.1-1.2.2-1.7.2-2,0,0,0,.7,0,.7ZM33,32.1s0,0,0-.1c.8.4,0,0,1.6.9h-.1c-1.1-.5-1-.5-1.5-.7h0ZM23.2,30.6c0-.1,0-.2-.1-.3,0,0,.1,0,.2.1,0,.1.1.3.2.4l-.3-.2h0ZM22.8,30.7c.1.1,0,0,.1,0,.2.4.5,1.1.8,1.6,0,0-.2,0-.2-.1-.6-1.2-.5-1.1-.7-1.6ZM22,31.4s0,0,0,0c0,0,0-.1,0-.2,0,0,0,0,0,0v.2ZM41,34.4c0,0,0-.1,0-.2h2.8c0,.1,0,.2,0,.2-2.3,0-2,0-2.7,0h0ZM24.4,32.8c-.4-.6-.6-1-.9-1.4,0,0,.2.1.2.2.2.4.4.8.6,1.2ZM21.7,32.4c0,0-.1-.1-.2-.2,0,0,0,0,0,0,0,0,0,.2.1.2h0ZM29.7,33c0,0,0-.2-.1-.2,0-.2,0-.1,0-.3,0,0,0,0,0,0,0,0,.1.2.2.3,0,.1.2.2.2.3,0,0-.3-.1-.4-.1h0ZM21.1,31.9h0s0,0,0-.1c0-.2,0-.1.2-.3h0c0,.2,0,.3-.1.4ZM18.3,31.9c0-.2,0-.4-.1-.5,0-.1,0-.2.1-.3,0,.2,0,.6,0,.8ZM19.7,33c-.1-.4-.1-.3-.2-.6h.1c0,.3.1.5.2.7,0,0,0,0-.1-.1ZM20.8,33c-.1-.3-.2-.5-.3-.7,0,0,.2,0,.3,0,0,0,0,0,0,0,.3.9.2.7.3,1,0,0-.2-.2-.3-.3h0ZM22.2,32.6c0,0,.2.2.3.3-.1,0-.2-.1-.3-.2,0,0,0,0,0-.1,0,0,0,0,0,0h0ZM22.2,32.7c0,0,0,0,0,0ZM25.2,32.7s0,0,.1,0c0,.2.2.3.3.5,0-.1-.3-.5-.4-.6ZM30.2,33.8c0-.1-.1-.2-.2-.4.2,0,.3.1.5.2,0,.1.2.2.3.3-.2,0-.4-.1-.6-.2ZM51.1,35.7s0,0,0,.1c-2.1.8-1.7.6-2.1.8,1-.4,1.2-.5,2.1-.9h0ZM17.1,30.4c0,.2,0,.4,0,1-.2.6-.4,1.4-.4,1.4,0,0,0,0,0,0,0-.2.4-2.1.4-2.3h0ZM18.3,32.6c.2,0,.2-.2.3-.3,0,0,.2.8.2.9-.2-.2-.4-.4-.5-.6h0ZM19.8,36c-.4-.8-.5-.9-.8-1.7.6.9.4.4.8,1.7ZM25.6,36.9c-.8-.3-.4,0-2-1.5,1.4.9.7.3,2,1.5ZM20.5,40.1c0,.3,3.8,4,4.1,4.3,0,0,0,0,0,0-1.3-1.1-2-1.5-4.5-4.7,0-.1-.2-.5-.2-.5.2.3.4.5.7.8h0ZM22.9,40c0,0,0-.2-.1-.2.1.2.4.5.5.6-.1-.1-.3-.3-.4-.4ZM27.5,44.3c-.3-.2-2.7-2.9-3-3.2,0,0,0,0,0,0,.9,1,2.1,2.3,2.9,3.2h0ZM34.7,45.9c.1,0,.2,0,.4.1,0,0,0,0,0,0-.1,0-.2-.1-.4-.2h0ZM35.1,46.8c-.4-.1-.9-.5-1.3-.7.3.1.9.5,1.3.7ZM25.1,46c-1.5-1.2-1.3-.9-2.7-2.6,1.6,1.6,2.7,2.6,2.7,2.6ZM16.7,46.3s0,0-.1-.1c-.1-.3-.2-.4-.3-.6,0,0,.2.2.2.3.1.4,0,0,.2.5h0ZM14.7,45.7c-.2-.2,0,0-.2-.2-.1-.3-.2-.6-.4-.9.3.5.1,0,.6,1.1ZM14.5,44.5l.2.2c0,.1,0,.2.1.3-.2-.3-.2-.2-.3-.5ZM15.7,44.3c0-.2-.2-.5-.3-.7.3.3.2.2.5.6,0,.1.1.4.2.6-.2-.2-.1-.1-.4-.4ZM10.1,42c0-.2,0-.3-.1-.5.2.5.1.3.2.8,0,0,0-.2,0-.3h0ZM21.1,44.7c-.5-.4-.3-.2-1.5-1.6,1.2,1.3,1,1.1,1.5,1.6ZM15.5,43.1c-.1-.1-.2-.2-.3-.3v-.4s0,0,.1.1c.2.6,0,0,.2.6h0ZM11.8,41.8h0s.5,1.3.7,1.8h0c-.3-.7-.4-1-.7-1.8h0ZM14.7,42.8c0,.2.1.4.2.6,0,0,0,0-.1-.1,0,0,0-.1,0-.1,0-.1,0-.2,0-.3,0,0,0,0,0,0h0ZM14,43s0,.2.3.8c0,0-.1-.1-.2-.2,0-.1,0-.2,0-.2,0-.1,0-.2,0-.3h0ZM21,43.4s0,0,0,0c1.5,1.4.7.7,1.8,1.8,0,0,0,0,0,0,.1.1.2.2.3.4-1.2-1-1.2-.9-2.2-2.1h0ZM27.8,45.6c-1.1-.8-1-.7-2.1-1.9,1.5,1.3,1.2.9,2.1,1.9ZM24.5,42.5c-.2-.3-.6-.6-.8-.9,0,0,0,0,0,0l.9.9s0,0,0,0h0ZM24.1,42.7c-.6-.5-1.2-1.1-1.8-1.6,0-.2,0-.3,0-.4.7.7,1.3,1.4,1.9,2h0ZM19.9,42.1s0,0,0,0c-.4-.4-.8-1-1.1-1.4.3.4.8.9,1.1,1.3h0ZM18.1,39.2c-.1-.2-.3-.4-.5-.6,0-.1,0-.2,0-.3.2.3.3.6.5.9h0ZM15.4,38.6c0,0,0-.2-.1-.3-.1-2-.1-1.6,0-3.1.3,3,.2,2.4.2,3.4h0ZM18.9,36.8c.2.3.3.6,1.1,2-.8-1.1-.9-1.3-1.1-2ZM16.9,36.7s0,1.1,0,1.5c0,0,0,0,0,0,0-.7,0-1.1,0-1.9,0,0,0,.2.1.4h0ZM18.1,35.7c-.4-.7-.3-.5-.6-1.3h0c.5.9.2.2.6,1.3ZM14.8,36.8c-.1-1.1,0-.3-.2-1.5,0,0,0,0,.1-.2,0,1.7,0,.9,0,1.7h0ZM12.4,37.1c0-.3,0-.6,0-.9,0,0,0,0,0-.4,0,.4,0,.2,0,1.3h0ZM14.4,36.1s0,0,0,0c0,.9.1,1.5.4,3.1,0-.3,0-.3-.2-.5,0-.7-.1-1.1-.2-2.5ZM17.2,39.2h0c0,.8,0,.2,0,.8h0c0-.2,0-.6,0-.8h0ZM9.4,42.6c-.9-1.9-.7-1-.5-1.7.4,1.3.3,1,.5,1.7ZM8.5,41.9s-.2-.5-.4-1.4c0,0,0,0,0,0,0,0,.1.6.3,1.3h0ZM9.6,42.3s0,0,0,0c.5,1.2.2.4.6,1.7,0-.1-.5-1.6-.6-1.7ZM10.5,43.1s0,0,0,0c.2.4.1.4.3.8-.2-.4-.2-.3-.4-.7ZM12.7,42.6c0,0,.1,0,.2,0,.4,1.2.6,1.6.9,2.2h-.1c0,0,0,0,0,0,0,0,0,0,0,0-.3-.6-.7-1.6-.9-2.1h0ZM13.2,46.3s0,0,0,0c-.6-1.3-.6-1.2-.8-2,.7,1.6.6,1.5.8,2h0ZM14.8,46.3s0,0,0,0c0,0,.2.2.2.2,0,0,0,.2.1.3-.2,0-.1,0-.2,0,0-.2-.1-.4-.2-.5ZM18.7,47l.4.4s0,0-.1,0c-.1,0-.2-.2-.3-.3,0,0,0,0,0,0h0ZM19.8,47.1c0,0,.1.2.2.2-.4-.3-1.3-1.1-1.6-1.4,0-.2,0,0,0-.3.2.2.3.3.5.5,0,.1,0,.2.2.2.3.3.5.5.8.8h0s0,0,0,0ZM33.7,47.5s-.3-.2-.3-.2c.3,0,.5.2.8.3,0,0,.2.1.2.2-.2,0-.7-.2-.8-.2h0ZM35.8,47.7s0,0,0-.1c.5.2.4.1.4.1,0,0,0,0-.1,0h-.4ZM35.2,47.5c-.1,0-.2,0-.4-.1-.1,0-.3-.2-.4-.3.1,0,.2,0,.3.1.2.1.3.2.5.3h0ZM47.7,49.2c.4-.1.5-.2.9-.3h.3c-.5.2-.4.1-1,.3,0,0,0,0-.1,0h0ZM42.5,47.1c.4,0,.7.1,1.1.3h-.3s0,0-.8-.3h0ZM47.5,47.6c.1,0,.2,0,.3,0,0,0-.8.2-.8.2.2,0,.4-.1.5-.2h0ZM35.2,44.8s0,0,0,0c-.8-.3-.6-.2-2.5-1.1,2.4,1.1,1.7.8,2.5,1.1h0ZM33,43.1c0,0,3.2,1.3,3.3,1.4-1.2-.4-1-.3-3.3-1.4ZM28.3,42.7s-.5-.4-.5-.4h0c.3,0,.5.2.8.3,0,0,0,0,0,0-.1,0-.2,0-.3,0h0ZM29.1,43.2l.3.2c-.3-.1-.3-.1-.6-.3.3,0,0,0,.3,0h0ZM50.2,46.2h.3c-.5.1-.6.2-1.1.3h-.1l1-.3h0ZM40.5,44.4c.3,0-.6-.2-.8-.2,1.1.2.8.1,1.2.2h0c.6.2,1.2.4,1.8.5h-.3c-.5-.1-1.5-.4-1.9-.5h0ZM49,45.3h.6c-1.4.3-1,.3-1.6.3,0,0,.9-.2,1-.3ZM25,39.9s.8.6.8.7c0,0,0,.1,0,.2-.7-.6-.3-.3-1.1-1.1.1,0,.2.2.3.3h0ZM26.6,40c.4.2.4.2.8.3l.2.2c-.6-.2-.4-.2-.8-.3,0,0-.1-.1-.2-.2h0ZM31.7,41.1s0,0,0,0c.2,0,.4.2.6.2-.2,0-.4-.1-.6-.2h0ZM33.4,42s0,0,0,0c-1.9-.6-1.8-.6-2.1-.7,0,0,0,0,0,0,1.8.6,1.5.5,2.2.7ZM30.6,41.6s-.1-.1-.2-.1c1.7.6,1.1.4,2.3.8h-.1c-1.6-.5-1.2-.3-2-.6h0ZM26.7,41.5c-.1,0-.6-.5-.7-.6.1,0,.3.1.4.2,0,0,.3.4.3.4h0ZM29.1,41.1c-.2,0-.2,0-.6-.2,0,0,0,0-.2-.2.6.2.5.2.8.4h0ZM41.6,44c.1,0,.4,0,.5,0,1.3,0,2.8.1,4.1.1-.3,0-.8.2-1.2.3-3-.3-2.8-.3-3.5-.5h0ZM50.2,44.1c.2,0,.3,0,.5,0-.6.3-2.1.6-2.4.6.4-.1,1.6-.5,1.9-.5ZM43.5,43.4c1.4,0,1,0,2.5,0,0,0,0,0,0,0-1.2.1-1.6,0-2.4,0h0ZM30.5,40.7c0,0-.2-.1-.2-.2.2,0,.4.2.7.3,0,0,.1,0,.2.1-.2,0-.4-.1-.6-.2h0ZM21,39.6c-1.7-2.7-1.1-1.8-.5-1,.3.5.2.5.5,1ZM35.2,38.2s-.3-.2-.3-.2c.4,0,.6.2,1,.3,0,0,0,0,0,0-.2,0-.4,0-.6-.1h0ZM28.9,36.9c-.2,0-.4,0-.6-.1-.9-.5-.8-.4-1.4-.9.5.3.2.1,2,1.1h0ZM21.9,36.3c-.2-.2-.4-.4-.6-.5-.2-.4-.2-.6-.4-.9.6.6.4.2,1,1.5ZM22.8,34.8c-.2-.2-.9-.8-1.1-1-.1-.3-.2-.6-.3-.9.3.3.6.7,1,1,.1.3.3.6.4.9ZM23.1,34.7l.2.2s0,0,0,0l-.2-.3ZM33.1,35.1c-.2,0-.5,0-.6,0,0,0,0-.1,0-.2.2,0,.4.1.6.2h0ZM25.5,33.9s0,0,0,0c.1.2.2.3.4.5-.1,0-.3-.2-.4-.3,0-.1,0-.2,0-.3h0ZM26.9,34.3l-.3-.5c.4.5.4.6.4.6,0,0,0,0-.1,0h0ZM31.4,34.8s-.8-.4-.8-.4l.6.2c0,0,.1.2.2.2ZM35.4,35.7c0,0-.6,0-.8,0,0,0,0,0,0,0,.2,0,.6,0,.8,0ZM40.7,36.3c.9,0,.7,0,1.4.2-1.2,0-1.1,0-1.4-.2ZM48.9,37.5c.6-.3,1.3-.5,1.9-.8,0,0,0,0,0,.1-.4.2-1.5.6-1.8.7,0,0,0,0,0,0ZM65,37.1s0,0,0,0c0,.2-.1.3-.2.5,0,0,0,0,0,0,.1-.5,0-.3.2-.6h0ZM63,36.9s0,0,0,0c.1-.4.6-2.2.7-2.6h0c-.3,1.3-.3,1.2-.6,2.5ZM67.2,34.1c0,.2,0,.3-.1.5,0-.3,0,0-.1-.6v-.5c0,0,.3.6.3.6h0ZM35.7,29.3h-.3c-.3-.2-.5-.3-.8-.4.6.2.2,0,1.1.4h0ZM9.8,28.9c0-.7.1-.9.3-1.2,0,.3-.2,1-.3,1.2ZM14.4,27.4c0,0,0,0,.1-.2,0,.7,0,1.4-.5,2.6.2-1,0-.5.3-2.4ZM15.3,30.2v1.2c-.1-.2-.1-.3-.3-.3,0-.3.2-.6.3-.9ZM11.9,31.6c0,0-.1,0-.2,0,0-.7,0-.8.3-1.6,0,.4,0,1.2-.2,1.6ZM11,31.7c0-.5,0-.9.3-1.8-.1,1-.2,1.4-.3,1.8ZM12.6,31.1c-.2,1-.2,1.2-.3,1.8,0,0,0-.2,0-.3.2-.9.2-.9.3-1.5h0ZM14,32.6c0,.4,0,.6-.1,1,0-.4,0-.2.1-1ZM14.5,33.2c.1,0,.3-1.1.3-1.3,0,1.4,0,.9-.3,2.1,0-.1,0-.7,0-.8ZM11.5,36.2s0-.1,0-.1c0,.9.1.9.2,1.8,0-.2-.2-1.5-.3-1.6ZM12.7,37.9l.5,3.6c-.6-1.4-.3-.8-.5-1.3,0-.4-.1-.7,0-2.2h0ZM11.6,38.7c.2.9.3,1.4.5,2.3,0,0,0,0,0,.1-.5-1.3-.4-.7-.5-2.5ZM7.5,41.1s-.1-.3-.3-.8c0,0,0,0,0,0,0,.3.1.6.2.9h0ZM11.5,43.6c1.1,2.8.4.9,1.1,2.6-.9-1.8-.8-1.5-1.1-2.6ZM10.4,46.3c0,0-.1-.1-.2-.1-.2-.3-.6-1.6-.7-1.9.2.5.7,1.6.9,2.1ZM9.1,46.7c0,0-.1,0-.2,0-.2-.6-.3-.9-.4-1.2,0,.2.6,1.1.6,1.2ZM8.3,48.2c-.4-.3-1-1.1-1.2-1.7,0,.1,1.1,1.5,1.2,1.7ZM8.5,51s0,0-.1,0c-.1-.2-.2-.4-.4-.6,0,0,.5.7.5.7h0ZM35.7,54.2c-2.6.3-2.1.3-6.9.8-.8-.1-.6-.1-2.1-.3.2,0,3.9-.2,9-.5h0ZM22.3,53.8c0,0,.2,0,.2.1-.3,0-.9,0-1.2,0-.5-.2-.2,0-.8-.3h0c.7,0,.4,0,1,.2.2,0,.6.2.8,0h0ZM25.6,54.3s0,0,0,0c-1.2,0-.7,0-1.8,0,0,0,0,0,0,0,.6,0,1.2,0,1.7,0h0ZM25.3,54c-.2,0-1.7,0-1.9,0l-.5-.2c2.5.2,1.4,0,2.3.1,0,0,0,.1,0,.2ZM17.3,53.1c.3,0,.5.2.8.3,0,0,.1,0,.2.1,0,0,0,0-.1,0-.4-.1-.6-.2-.9-.4ZM33.7,55c0,.1.6.2.8.2-1.4,0-4,.2-4.5.2,1.1,0,2.6-.3,3.7-.4h0ZM4.7,52.2c0,0,0-.1-.1-.2,0-.2,0-.4-.1-.6,0,0,.2.8.2.8ZM15.5,53.3c.2,0,.4.1.6.2.2.2.5.4.7.6,0,0,0,0-.1,0,0,0-.2,0-.3-.1-.2-.2-.7-.5-.9-.7h0ZM25.4,55.3c-.7,0-2.6-.2-4.1-.4,0,0,0,0,0,0,1.7.2,3.9.4,4.2.4h0ZM15.9,54.1s0,0,.1.1c-.1,0-.6-.2-.7-.3.6.2.6.2.6.2ZM18.2,56.6c-1.2-.5-.9-.4-2-1.2,0,0,.3.2,2,1.2ZM33.6,58.6s0,0,0,0c-2.4.3-.8.1,0,0ZM20.1,57.1c0,0,.2,0-.4,0-.1,0-.3-.2-.4-.3.4.1,0,0,.8.3ZM18.3,57.4c-1.9-.9-1.3-.5-2.2-1.2,0,0,0-.1,0-.2,1.2.6.7.3,2.3,1.4h0ZM15.6,57.1c0,0-.2-.2-.3-.3,1.1.6.6.3,1.8.9-.3-.1-1.1-.5-1.5-.6h0ZM11.1,56.8c.1.2.3.3.4.5-1.1-.8-1.3-.9-1.3-.9-.1-.2-.2-.3-.4-.5.2.2,1,.7,1.3.9h0ZM46.1,62c.5,0,.8,0,1.4,0-.1,0-.3,0-.4.1h-1s0,0,0-.2h0ZM22.8,58.6c0,0,5.3.5,5.4.5,0,0,0,0,0,0-.7,0-4.7-.4-5.3-.5h0ZM19.4,57.8c0,0-.7-.5-.8-.6.4.2,1.5.6,1.5.6-.2,0-.6,0-.7,0h0ZM22.7,58c-.1,0,0,0-.1,0,1.8.2,2.3.3,3,.4-2-.2-2-.2-2.8-.3h0ZM41.3,60c0,0,1-.2,1-.2-.5.2-.7.4-1.2.6-.7.1-.3,0-1.8,0,.6,0,1.4-.3,2-.4h0ZM50.2,61.4h1.2c-.9.3-1,.2-1.9.2.2,0,.5-.2.7-.2ZM67.9,57.7c-1.3.9-.7.6-1.9,1.3.5-.4,1-.8,1.7-1.3,0,0,.1,0,.2,0ZM64.8,59.3c.8-.8,1.9-1.8,2.9-2.3-.8.7-2.1,1.7-2.9,2.3ZM64.2,58.4c0,0-.2,0-.2,0,.8-.8.7-.7,1.2-1.2,0,0,.1,0,.2,0,0,0-1.1,1.2-1.1,1.3h0ZM51.8,55.4c.3-.2.1,0,.9-.3,0,0,0,0,0,0-.4.1-.5.1-.8.2h0ZM52.6,55.1h0s0,0,0,0ZM49.3,55.2c-.2,0-.3,0-.5,0,1.6-.2,1.9-.2,2.8-.3-.6.1-1.6.3-2.3.4h0ZM46.4,54.6c2.2-.3,1.1-.1,2.7-.3,0,0,0,0,0,0-.2,0-2.5.3-2.6.3h0ZM39.7,53c0,0,0-.1-.1-.1,1,0,.8,0,1.9-.1-.6.1-.3,0-1.7.2h0ZM21.8,49.3c-1.1-.4.8.3-.9-.4l-.4-.4c.3.1.4.2.7.3,0,0,.5.4.5.5ZM24.5,49c-.8-.5-.5-.3-1.1-.7,0,0,0,0,0,0,.7.5.7.5,1.1.8h0ZM28.5,49.1c-1.2-.6-.8-.3-1.9-1.4.1.1,1.4,1.1,1.6,1.1,0,0,.2.2.3.3h0ZM42.7,49.8s.2,0,.2,0c-3.7.8-3.4.7-4.1.7,4.1-.8,3.9-.8,3.9-.8h0ZM41.8,50.8s1.2-.3,3-.7c.2.1.5,0,.7,0,0,0,0,0,0,0,0,0,0,0,.1,0-.7.2-1.3.3-3.8.8,0,0,0,0,0-.2ZM48.5,51.8s1.2-.4,3.5-1.2c0,0,0,0,.1,0-1.9.8-1.9.8-3.6,1.2h0ZM54.7,51c.1,0,.2-.1.4-.2.1,0,.6-.1.7-.1-.4.1-.7.2-1.1.3ZM46.7,51.4c-.3,0-.4,0-.7,0,2-.7,4.3-1.5,5.6-2,.3,0,.9,0,1.2,0,0,0-4.7,1.7-6.1,2.1h0ZM56.8,50c.4-.2.1-.1.5-.3,0,0,0,0,.1,0,0,0,0,0,0,0-.1.1,0,0-.3.3-.4,0-.3,0-.4,0h0ZM58.3,49.5h.3c-.2,0-.4.2-.6.3,0,0,0,0-.1,0,.1-.1.3-.2.4-.3h0ZM60.3,49.8c.1,0,.3,0,.4-.1-.5.4,0,0-.6.4,0,0-.4,0-.4,0,0,0,0,0,.5-.4h0ZM49.6,48.7s0,0,0,0c1.8-.6.3,0,2.4-.8,0,0,0,0,0,0-2,.7-1.4.5-2.5.8h0ZM59.9,49.2c.2,0,.3-.1.5-.3.2,0,.2,0,0,0h.1c-.2,0,.2,0,.4-.1-.1.1-.3.2-.4.3l-.7.2s0,0,.1,0h0ZM61.6,47.9c.1,0,.3,0,.4-.1,0,0,0,.1-.1.2-.2,0-.3,0-.5,0,0,0,.2-.1.2-.2h0ZM51.7,46.6c-.2,0-.3,0-.6,0,0,0,1.8-.5,1.8-.5-.2.2,0,0-.2.3-.3,0-.6.2-1,.3h0ZM50.8,45.6c0,0-.2,0-.3,0h-.5c.3,0,.6-.2.9-.2,0,0,0,.1,0,.2h0ZM53.5,45.3s0,0-.1.1l-1.2.4c1-.4.5-.2,1.4-.5h0ZM55,45c0,0-.3,0-.4,0,.2-.2.4-.4.6-.6.4-.2.1,0,.5-.3-.2.3-.5.5-.7.8h0ZM42.5,42.4s0,0,0,0c1.4,0,.4,0,1.7,0-.6,0-1,0-1.7,0h0ZM32.4,40.7s0,0-.1,0c-.4-.2-1-.4-1.1-.4,0,0,0,0-.1-.1,1.3.5,1.3.5,1.3.5h0ZM29.3,39.7s0,0,0,0c.1,0,.3.1.4.2,0,0,0,0,.1,0-.6-.2,0,0-.5-.2h0ZM23.4,39.2s-.8-.8-.9-.9c0,0,0,0-.4-.7.3.3.6.6.9,1,.2.3.2.4.4.7h0ZM42.5,41.4c2,0,2.8,0,4.5,0-.6,0-1,0-3.7.2-.2,0-.2,0-.8-.2h0ZM31.6,39c-.2,0-.3,0-.4,0-.4-.2-.5-.2-.7-.4.7.2.2,0,1.2.5h0ZM25.4,35.7c-.6-.3-.5-.2-1.1-.8,1,.6.7.4,1.1.8ZM66,39.3c0,0-.2,0-.2.1,0,0,.6-2.7.6-2.8,0,0,0-.3,0-.4,0,.2,0,.3.1.4-.4,1.5-.6,2.6-.6,2.6h0ZM73.2,37c.1.7.2.7.1,2.9,0,0-.1-2.9-.1-2.9ZM72.3,37.2c0,0,0-.1-.1-.1,0-1.8-.3-3.1-.4-4.4.8,3.7.7,3.5.6,4.5h0ZM49.9,30.9c1-.4,1.7-.6,3.1-1.2,0,0,0,0,0,.1-1.5.5-2.4.8-3.1,1.1ZM49.9,29.7c0-.1,0,0,0-.1,1.3-.3,2.2-.6,2.9-.8v.2s-1.1.3-2.9.8h0ZM46.7,29.3c0,0-.1,0-.2,0,2.7-.5,5-1.2,6.1-1.5,0,0,0,0,0,.2-1.5.3-3.5.8-5.9,1.3ZM36.7,25.3c-.9-.2-.6-.1-1.3-.5,1.8.4,1.7.4,2.7.6-.9,0-.6,0-1.4-.2ZM27.1,24s0,0,0,0c0,0,0,0,.1,0,0,0,0,0,0,0,0,0,0,0-.1,0ZM32.5,24.6c-.3,0-.5-.1-.9,0-.5-.3-.5-.3-.6-.3,0,0,.1,0,.2-.1.4.2,1,.4,1.3.6h0ZM44.9,26c.4,0,1.3-.2,1.6-.2-.4,0-1,.1-1.5.2,0,0-.1,0-.2,0h0ZM29.1,23.7c0,0,0,0,0,0,0,0,0,0,.1,0,0,0,0,0,0,.1,0,0,0,0,0,0ZM29.4,23.5c.2,0,0,0,.2-.1h0c0,.1,0,.1,0,.1,0,0,0,0-.2,0ZM28.4,23.3s0,0,0,0c0,0,0,0,.2,0,0,0,0,0,0,0,0,0-.1,0-.2,0h0ZM20.7,20.6s0,0,.1-.1c0,.1-.1.3-.2.4,0,0,0,0,0,0,0-.1,0-.3.1-.4ZM33.3,22.8c.1,0,0,0,.2,0,1.2.4.7.3,2.8.9-2.8-.5-2.5-.5-3.4-.6.2-.1.3-.2.4-.2h0ZM26.8,22c0,0,0-.2,0-.3,0,0,0,0,.1,0,0,0,0,.2,0,.3,0,0,0,0-.1,0ZM43.2,24.6c2.9-.3,2.4-.3,3.1-.2-2.5.3-2.4.3-3.1.2ZM38.9,23.6c0,0,0,0-.1,0-.3,0-3.7-.9-4-1,.1,0,.3,0,.4,0,1.4.4,2.1.6,3.7.9h0ZM31.6,22.3c0,0-.5.1-.6.2.2-.1.4-.2.6-.3.1,0,.2,0,.3,0,0,0,0,0,0,0-.1,0-.3.1-.4.2ZM27.5,21.5s0,0,0,0c0,0,0-.2,0-.3,0,0,0,0,0,0,0,0,0,.2,0,.3ZM29,22.8c.2-.1.4-.2.4-.2,0,0,0,0,.1,0,0,0,0,0,0,0-.2,0-.3.2-.5.3,0,0,0,0,0,0h0ZM47.3,24.3s0,0,0,0c.3,0,.7,0,1,0-.2,0-.9.1-1,.2h0ZM19.6,19.5c0,0,.1-.1.2-.2,0,0,0,.1,0,.2,0,0-.1.1-.2.2,0,0,0-.1,0-.2h0ZM21.1,16.5c0,0,0,0-.2,0,.2-.2.3-.3.5-.6,0,0,.2,0,.2-.1-.2.2-.4.5-.6.7ZM38.3,18.4c-.5.3-.3.2-1.1.4.7-.4.4-.3,1.1-.4ZM20.2,16.3c0,0,0,.1-.1.2,0,0,0,0,0-.1.1-.2,0,0,.2-.2,0,0,0,0,0,.1ZM19.3,16.3c0,0-.1.1-.2.2,0,0,0-.1,0-.2,0,0,0-.1.1-.2,0,0,0,.1,0,.2h0ZM20.7,16.6c0,.2-.2.4-.2.6-.1.2,0,.1-.3.3.1-.4,0-.2.2-.6.2-.2.1-.1.3-.4ZM19.4,18.5c0-.1,0-.3.1-.4v-.2c0,.1,0,.3,0,.4,0,0,0,0-.1.1ZM20.6,18.4c.1-.1.2-.2.3-.3,0,0,0,.1,0,.2-.1.1-.2.2-.3.3,0,0,0,0,0-.2h0ZM22.5,18.5c0,0,.7-.8.7-.8,0,0,0,0,0,.2-.2.2-.7.8-.8.9,0,0,0-.1,0-.2h0ZM15.9,16.9c-.7,1.5-.7,1.3-1.7,3.3,1.1-2.4.8-1.8,1.7-3.3ZM21.7,19.7h-.1s0-.1.1-.3v-.2c0,.1,0,.3,0,.4h0ZM14.8,15.8s0,0,0,0c-1.3,2.3-1.1,2-2.1,4,0,0,0,0,0,0,1.5-3,.7-1.5,2.1-4.1h0ZM11.9,20.1c.3-.5.7-1.2.7-1.3-.3.6-.2.5-.7,1.3,0,0,0,0,0,0ZM12.5,20.2c0,0,0,.1,0,.2-.2.4-.4.9-.7,1.6,0,0,0-.2,0-.3.2-.4.5-1.1.7-1.5h0ZM10.8,20.2c-.2.8,0,.1-.6,1.6.2-.9,0-.5.6-1.6ZM11.6,20.6c0,.5,0,.1-.7,1.6,0-.4.5-1.3.7-1.6ZM26,24.5c0,0,0,.1.1.2,0,.4.1.7.2,1.1-.2-.3,0,0-.1-.3,0-.3,0-.1-.2-1.1ZM24.5,25.6s0,0,0-.1c.1.3.2.5.4.8,0,0,0,.1,0,.2-.1-.3-.3-.6-.4-.9ZM8.5,24.2c-.2.9-.9,3.5-1.1,4.4,0,0,0,0-.1,0,.2-.7.7-2.8,1.2-4.5h0ZM8.6,28.3c-.1,1,0,.6-.3,1.7,0-.9,0-.5.3-1.7ZM5.5,33.5c-.1,1.6-.1,1.7-.2,2.6,0-.9-.1-.5.2-2.6ZM7.5,36.8c.2,1.4.2,1.7.5,3.2,0,.1,0,.2,0,.3-.1-.5-.4-1.5-.5-1.9,0,0,0,0,0-1.6h0ZM6.7,37.8c.3,1.3.2.8.2,1.7,0-.2-.2-.8-.3-.9,0-.2,0-.4,0-.7h0ZM4.9,38.3c.4,1.9.2.3.6,4.8-.4-1.7-.5-3-.6-4.8ZM5.1,42.7c0,0-.1-.2-.2-.2,0-.7-.1-1.7-.1-1.9,0,.4.1,1.1.3,2.1h0ZM3.9,39.5c0,.2,0,2,0,2.9-.2-.6,0-3.4,0-2.9ZM3.4,41.6c0,.2,0,1.4,0,1.8,0,0,0,0,0,0,0-.4,0-1.3,0-1.9ZM6,43.8c0-.7,0,.3,0-.8,0,.3.2.8.2,1,0,0-.1-.1-.2-.2h0ZM7.1,43.7c.4,1,.3.7.5,1.3,0,0,0,0,0,0,0,0-.5-1.3-.5-1.4h0ZM6.9,45.1h0c0-.2,0-.3,0-.4,0,0,0,.3,0,.4ZM3.4,44.2c.3,1.8.1.4.3,2.3,0,0,0,0,0,0-.2-.9-.2-.8-.2-2.3h0ZM4.7,45.9c0,.1,1.3,3.9,1.4,3.9-.1-.2-.3-.4-.4-.6-.2-.7-.7-1.8-1-3.2,0,0,0,0,0-.2h0ZM4.6,49.1c-.3-1.4-.3-1.2-.4-2.1.2.8.4,1.4,1.1,3.2l-.7-1.1h0ZM5.3,50.2s0,0,0,0ZM5,44.9c0,0,0,0,0-.1,2,5.2,1.9,4.7,2.6,6.2-1-1.2-2.2-4.3-2.7-6.1ZM16.1,52.4c-.1,0,0,0-.3-.2.5.2,1,.4,1.5.6h0c-1.2-.3-.6-.1-1.3-.4h0ZM10.1,52.4c-.5-.5-.5-.5-.7-.7.2.2.5.5.7.7ZM8.1,52c-.2,0,0,.2-.2,0l-.3-.6c.2.2.3.4.5.6ZM3.7,52.8c0-.4-.2-1-.2-1.7,0,.2.5,2.1.5,2.3,0,0-.2-.5-.2-.5h0ZM21.1,55.9s0,.1,0,.2c-.3,0-1-.1-1.4-.1-.2,0-.3-.1-.5-.2.7,0,.8,0,1.9.2h0ZM11,54.5h.1c.1.2.4.5.5.6-.4-.3-.3-.2-.6-.6h0ZM12.9,55.6c.4.2.3.1.7.5,0,0,0,.1.1.2,0,0-.2,0-.3-.1-.2-.2-.2-.2-.5-.5h0ZM7.8,55.2s0,0,0,0c.6.7,1,1.1,1.6,2h0c-.6-.6-1-1.1-1.5-2h0ZM7,56.1s0,0,0-.1c.4.6,1.2,1.6,1.6,2.2,0,0-.1,0-.3-.2-.7-1-.7-1-1.3-1.9h0ZM6.5,57.6s0,0,0,0l.8,1.2c-.1-.1-.3-.2-.4-.3-.2-.5-.2-.4-.4-.9h0ZM19.8,60.8c.3,0,0,0,1.2.1,0,0,0,.1,0,.2,0,0-1.2-.3-1.2-.3ZM10.6,59.7s0,0,0-.1c.8.5-.3-.1,4.6,3-.8-.3-3.9-2.5-4.6-2.9ZM7.8,60c0-.1-.1-.2-.2-.3,0,0,0-.1-.1-.2.2.2.6.5.9.7l.3.4c-.4-.2-.5-.4-.9-.6h0ZM7.5,62.2c1,1,1.1,1.2,2.1,2.1,0,0,0,0,0,0-.6-.6-1.1-1-2-2.1h0ZM6.6,60.4c2,2.2,3,3.2,5.4,5,0,0,0,0,0,0-1.8-1.5-3.8-3.3-5.3-5.1ZM40.1,71.5c-.1,0-.2,0-.3,0,.3,0,2.7,0,3,0-1.9.1-2.2.1-2.7.1h0ZM32.3,69.9c.2,0,1.3.2,1.5,0,.2,0,1.4.5,2,.6-.1,0-.3,0-.4,0-.9-.2-1.5-.3-2.4-.4-.2,0-.2-.1-.8-.3h0ZM38.1,70.6c0,0,0,.1,0,.1-.3,0-.6,0-.8,0-.3,0-.5-.1-.8-.2.8,0,1,0,1.6,0h0ZM32,70.2s0,0,0,0c-.2,0-.4-.2-.6-.3.2,0,.5.2.7.2ZM49.5,72.5c1.2-.6,1.7-.8,2.6-1.2,0,0-.1.1,0,.3-.4.2-2.1.9-2.4,1.1,0,0,0,0,0-.1h0ZM32.5,69.5h-.6c0-.1-.6-.4-.6-.4,1.2.3.6.2,1.2.4h0ZM29.4,69.1c-.3,0-.5,0-.8-.1,0,0-1.3-.6-1.4-.6,1.5.5,1,.3,2.2.7h0ZM32.3,69c-.1,0-2.1-.6-2.2-.7,0,0,0,0,0,0,0,0-.2,0-.3,0,2.9.7,4.3.9,5.8,1.2,0,0,0,0,0,0-.6-.1-2.6-.6-3.3-.5h0ZM38.7,69.5c-.2,0-1.6,0-1.8-.1,0-.1-1-.5-1.2-.6.7.2,0,0,3,.7ZM33.4,68.6c-.1,0-1-.2-1.2-.2,0,0,0-.2,0-.2,0,0,.5.3,1.2.5ZM30.2,69c-.7-.2-5.5-1.7-6.4-2.1,3.4,1,4.3,1.1,6.4,2.1ZM16.5,66.2c-.1-.2-.4-.3-.6-.5,0,0,.1,0,.2,0,0,0,1,.6,1.1.7-.2,0-.5-.2-.7-.2h0ZM18.5,66.8c-.2-.1-.4-.3-.7-.4h0c-.1,0-.3-.2-.4-.2,1,.4,1.3.6,2.1.9-.4,0-.7-.2-1.1-.3h0ZM14.4,67.2s.4.2.4.3c0,0,0,0,0,0l-.4-.3ZM14.4,66.7c.9.5,2.1,1.2,2.8,1.6,0,0,0,0,0,0-1.9-1.1-2.2-1.2-2.7-1.6h0ZM17.6,67.8c-.2-.1-2.3-1.2-2.5-1.3,2.2.8,3.8,1.6,6,2.8-.4-.2-3.2-1.3-3.5-1.5ZM27.3,70.3h.7c.1.4,2.1,1.2,2.4,1.3-1,0-2.4-1-3-1.3h0ZM33.4,71.6c0,0,0,.1,0,.2-1.6-.6-1.2-.5-1.8-.7,1.2.2.6,0,1.9.5ZM39.3,75c-.6,0-1.2-.1-1.9-.2-.1,0-.2,0-.3-.2.3,0,1.8.3,2.1.3h0ZM32.8,74c.1,0,.2.1.3.2-.9-.2-1.7-.3-2.4-.8.7.2,1.4.4,2.1.6h0ZM44.8,75.7c.3,0,2.6-.5,2.9-.5,0,0-.6.3-.7.4-.9.2-.4,0-1.6.3-.2,0-.4-.1-.6-.1h0ZM33,73.7c-.3-.2-.6-.4-1-.6.3.1,1,.4,1.7.6-.1,0-.6-.1-.7,0ZM39.2,74.3c-.8,0-1.6-.2-2.5-.2,0,0-.3-.2-.4-.3,2.9.4,2.4.3,2.8.5h0ZM53.3,76s0,0,.1,0h.2c0,0-.2,0-.3.1,0,0,0,0,0,0h0ZM45.4,74.9s0,0,0,0c.4,0,.7,0,1.4-.2h-.1c-.5.2-.9.2-1.3.3h0ZM35.3,73.9c-.5,0-4.9-1.8-5.2-2,.7.3,3.8,1.5,5.2,2ZM27.7,71.3c.4.1.5.2.9.3,0,0,1.6.8,3.3,1.8-1.4-.4-1.4-.4-1.9-.6-.1,0-2.1-1.4-2.2-1.5h0ZM22.7,71.2c1.9.9,1.2.5,2.1,1.1,0,0-2.1-1.1-2.1-1.1ZM20.6,71.8c2.2,1.2.8.4,2.7,1.4-1-.4-2.1-1-2.7-1.4ZM20.3,71.2c5.9,2.6,1.6.5,5.8,2.9,0,0-5.8-2.9-5.8-2.9ZM24.8,73s0-.1,0-.2c.2,0,1,.6,3.4,1.9,0,0,0,0,0,0-1.3-.5-2.2-1.1-3.4-1.8h0ZM42.2,75.7c-.3,0-.3,0-.6.1-.5,0-.1,0-1.7-.3,1.7.1.7,0,2.3.2ZM27.9,74.2s0,0,0,0c0,0-.8-.4-.9-.4.4,0,.2,0,.9.3h0ZM28.5,74.5c1.4.5,5,1.5,6.8,2,0,0,0,0,0,0-1.7-.4-5.2-1.4-6.7-2h0ZM41.3,76.5c-2.3-.2-1.8-.1-2.9-.4,1.3,0,.5,0,2.9.4ZM35.6,75.8c.7.2.7.2,1.4.3-.6,0-.3,0-1.4-.3,0,0,0,0,0,0ZM43.2,77.2c-.1,0-.3,0-.4,0,0,0-.2-.1-.3-.1h.7c0,0,0,0,0,0ZM38.5,78.4c0,0,0,.1,0,.1-.6-.1-.6-.1-.6-.1,0,0-3.1-.9-4.6-1.5,3.3,1.1,2.1.7,5.2,1.5h0ZM38.5,77.7c.1,0,.3,0,.4,0,0,0,0,0,0,0-.2,0-.3,0-.4,0ZM40.6,78.5c0,0,0-.1-.1-.1,1.4.1.9.1,2.9.4,0,0,0,.1,0,.2-.8,0-2.1-.3-2.9-.4h0ZM44,78.9c1,0,.3,0,1.4,0-.9,0-.9,0-1.4,0ZM47.9,78.9c-.4,0-.5,0-.7,0,1.5-.2,3.3-.8,4.7-1.3-1,.5-2.1.9-4,1.4h0ZM48.9,76.8c-.7.2-.8.2-2.3.4-.2,0-.4,0-.6,0,.8-.1,2.1-.3,2.9-.5,0,0,0,0,0,.1h0ZM45.9,76.4s0,0,0,0c1.7-.2,3-.5,3.8-.7,0,0,0,0,0,0-.7.1-2.4.5-3.7.7h0ZM51.7,76h0s-.7.2-.7.2c.3-.2.3-.2.7-.2ZM53.9,76.4s0,0,0,0c0,0,.8-.5.9-.5h0c-.3.2-.5.4-.8.6h0ZM48.9,75.2s.7-.3.8-.3c0,0-.2.1-.3.2-.2,0-.2,0-.4,0h0ZM53.2,75.5c-.2,0,0,0-.3,0,0,0,0,0,.1,0,.3,0,.2,0,.5-.2,0,0-.2.1-.3.2h0ZM33.8,72.5c-.2,0-.5,0-.6,0-2.2-.9-.5-.2-2.5-1h0c0,0,.1,0,.1,0,1.6.6,1.6.6,3,1.2h0ZM54.5,75.2c.2-.1.5-.3.5-.3,1-.2.6-.1,1.1-.3-.7.4-.6.4-1.6.6h0ZM54.9,74.3c-.1,0-.3,0-.4.1.8-.5.7-.5,2.1-1.4,0,0,0,0,0,0-.2.1-1.1.7-1.7,1.2h0ZM58.4,72.8c-.3.2-.6.3-.9.4.5-.3,1.3-1,1.8-1.3-.2.2-.5.4-.5.7,0,0-.5.3-.4.2h0ZM60.1,72.8s0,0,0,0h0c.8-.7.6-.6,1.4-1.3-.9.9-.3.3-1.4,1.3h0ZM59.7,72c.6-.6.3-.3,1.4-1.4.2,0,.8-.5,1-.5h0s0,0,0,0c-.7.7-1.5,1.4-2.4,1.9h0ZM57.7,71.4c1.9-1.5,1.5-1.3,3.2-2.6.3,0,1.6-1.1,1.8-1.3-1.5,1.6-4.7,3.9-5,4h0ZM62.4,69.4c.3-.3.6-.6.9-.9,0,0,.2,0,.3-.1-.3.3-.6.6-1.1,1ZM55.7,69.3c0,0,0-.2-.1-.2,1.6-1,3.7-2.7,4.5-3.3-2.7,2.4-3.6,2.9-4.4,3.5h0ZM44.7,64c0-.1-.8-.2-.9-.2.1,0,1.2-.1,1.3-.1.1,0,1.1,0,1.2,0,0,0,2.9.3,2.9.3-.2,0-.3.2-.5.3-.7,0-3.1,0-4.1-.1h0ZM50.6,62.8c-2.9,0-2,0-3.7,0,.2,0,.5-.1.7-.2l3.9-.2c-.1,0-.9.3-.9.5h0ZM53.3,62.7c.7-.3,1.9-.7,3.5-1.4,0,0-.1.1-.2.2-1.1.6-2.2,1.1-2.6,1.2-.3,0-.4,0-.7,0h0ZM52.3,59c.2-.1.4-.3.6-.4,0,0,0,0,0,.1,0,0-.2.1-.3.2-.1,0-.2,0-.4,0h0ZM69.1,60.7c0,0-.1,0-.2,0,.4-.5.8-.9,1.2-1.4-.6.9-.6.8-1,1.4h0ZM67.8,60.8c0,0-.2,0-.2,0,0,0,0-.2,0-.3,2.1-2,1.4-1.3,2.2-2-.4.5-1.7,2-2,2.3h0ZM66.6,60.9c1.5-1.4,2.8-2.7,3.9-3.7-.9.9-2.7,2.8-3.9,3.7ZM68.2,57.4c.5-.4.5-.5,1-.9-.5.6-.3.5-1,.9ZM65.8,57.4c-.1,0-.4.2-.5.3.4-.5.2-.2.9-1,.9-.4.3-.1,1.2-.5-.7.7-.2.3-1.5,1.2h0ZM53.9,54.3s-.8.2-.9.2c-.2,0-.8,0-1.1,0,.4,0,1.4-.2,1.8-.3,0,0,0,0,0,0ZM42.4,52.3c-.3,0-.5,0-.8,0,.4,0,.8-.1,1.2-.2-.1,0-.3.1-.4.2h0ZM69.3,55.6c0,0,.1-.1.2-.2,0,0,0,0,.2,0,0,0-.2.2-.3.3ZM53,53.4c0,0,0-.1-.1-.2.9-.2,2-.4,3.2-.6,0,0,0,0,0,0-2,.7-1.7.6-3,.8h0ZM70.6,54.1s0,0-.1,0c0-.1.1-.2.2-.3,0,0,.2,0,.2-.1l-.3.3h0ZM67.1,53.7c0,0-.1,0-.2,0,.5-.8.4-.6.7-1,0,0,0,0,.1,0-.3.4-.4.6-.6,1h0ZM63.3,52.2h-.2c.2-.2.3-.4.5-.5,0,0,.1,0,.1,0-.2.3-.2.2-.4.6h0ZM58.7,51s0,0,.1-.1c0,0,.2,0,.3,0h0c0,0-.1.1-.4.2h0ZM62.4,49.5s0,0,0,0c.8-1,.7-.8,1-1.1,0,0-.9,1-.9,1.1h0ZM62.3,48.4s0,0,0-.2c.5-.4.3-.3.8-.6-.4.5-.2.3-.8.8h0ZM63.4,46.8c.5-.7.3-.5,1.3-1.4-.4.5-.2.4-1.3,1.4ZM64.1,44.8l-.5.7c-.2.2-.5.4-.7.6.8-1,.7-.9,1.1-1.3h0s0,0,0,0ZM62,43.9c-.4.3-.3.3-.7.6.4-.5.3-.4.7-.7,0,.1,0,0,0,.1ZM52.5,43.7c3.2-1.5,2.3-1.1,4.1-2,0,0-.2.2-.3.3-.6.3-3.2,1.5-3.8,1.7h0ZM61.3,42.7c-.3.4-.2.3-.5.5v-.3c.2-.1.3-.2.4-.3,0,0,0,0,0,0ZM75.6,42.3s0,0,0,0c.2-2.8.2-3,.2-4.3.2,2.6.2,1.6-.1,4.4ZM73.9,37.4c0-.4-.1-.8-.1-1.1.2.9.1.8.1,1.1ZM76.4,36.5s0,0,0,0c0,0-.1-.8-.1-1.2.2,1,.2.7.2,1.2h0ZM75.3,36.5c-.1-.9,0-.9-.3-3.6.2.7.3,2.9.3,3.6ZM66.6,32.1c0,0,0,.1,0,.2-.2-1.1-.1-.6-.6-2.4.2.7.1.4.6,2.2h0ZM74.7,31.9h0s0,0,0,0ZM74.7,31.9c0,0-.2,0-.2,0,0-.4-.2-.8-.2-1.1.3.5.4.7.5,1.1h0ZM51.9,25.5c-1,.1-4.8.8-5.4.8,1.5-.2,3.7-.5,5.2-.9,0,0,0,0,.1.1ZM31.4,21.5c-.2,0-.3,0-.5.1,0,0,.1,0,.2-.1.1,0,.3,0,.4,0,0,0,0,0-.1,0h0ZM57.6,25.1s0,0,0,0c0,0-2.3-2.5-2.4-2.6-.1-.1-.2-.3-.4-.4h0c1.7,1.7,1.4,1.4,2.7,2.9h0ZM72.5,27.2s0,0,0,0c-.4-.9-.6-1.3-1.1-2,0,0,0,0,0,0,.6.6.9,1.3,1.1,2ZM74.1,26c-.4-1-.5-1.2-.8-2,.6.6.8,1.2.8,2ZM68.6,22.3c0,.1.2.3.3.4,0,.3,0,.3.2.6-.4-.6,0,0-.7-1.1,0,0,.1,0,.2,0h0ZM69.1,21.2s.1.2.3.4c0,0,0,0-.1,0-.4-.5-.3-.5-.3-.5,0,0,0,0,.2.1ZM65.4,22.4c-2.2-2.1-3.6-3.3-4.2-3.9,0,0,0,0,0,0,2.8,2.1,3,2.2,4.2,3.9ZM64,19.8c-.1-.1-.8-.9-.9-1,.5.4.3.2.9,1ZM71.4,19.8c-.4-.6-.3-.5-1.3-1.8,0,0,0,0,0,0,.2.2,1.4,1.9,1.2,1.9ZM54.6,16.2c-3.1-1.1,0,.1-4-1.4,0-.2-.4-.3-.6-.3h.5c1,.4,3.7,1.5,4.1,1.8ZM71.2,17.3c0,0,0,0-.1.1-.4-.6-1-1.5-1.3-1.9.6.6.8,1,1.4,1.8ZM58.6,14.5c-3.3-1.6-4.2-2-7.5-3.3,0,0,.2,0,.3,0,2.4.8,5.1,1.9,7.2,3.3h0ZM37.7,9.3c.1,0,1-.5,1.1-.6.5,0-.3,0,2.5-.3.2,0,0,0,.2,0-3.1.5-2.8.5-3.9.9ZM67.1,14.7c-.3-.2-.3-.3-.6-.6.2.2.2.1.6.6ZM66.1,13.8c0,0,0,0-.1,0-1.8-1.4-1.9-1.5-1.9-1.5,1,.7.6.4,2,1.5ZM28.5,8.8c.7-.6,3.3-1.9,4-2.1-2.2,1.1-1,.4-4,2.1ZM30.8,6.6s0,0,0,0l.9-.5c-.3.2-.6.4-.9.5h0ZM31.6,4.5c0,0,1-.2,1.1-.2,0,0-3,1.5-3,1.5,1.2-.9.8-.7,1.9-1.3h0ZM36.7,5.9s-.2.1-.3.1c0,0,0,0-.1-.1,0,0,0,0,.3,0,0,0,0,0,0,0h0ZM37.3,6.5c.1,0,.2,0,.4-.1.1,0,.4,0,.6,0-.7.1.2,0-.9.2,0,0,0,0,0,0h0ZM66,10.7c-.3-.3-3.2-2.6-3.2-2.6,1.2.4,2.2,1.3,3.2,2.6ZM58.4,7.5c-.7-.3-1.7-.5-2.2-.7.9.1.3,0,.9.1,0,0,1.3.6,1.3.6h0ZM55.1,6.8c-1.7-.4-.8-.2-2.8-.6,1.8.1,1.5,0,2.8.6ZM30.5,3.1s0,0,0,0c.1,0,.4-.2.5-.3,1.2-.3,2.3-.5,3.1-.7-1,.3-2.6.7-3.5,1h0ZM55.8,6.3c-1.1-.2-.8,0-1.7-.5.5,0,1,.2,1.7.5ZM52.3,5.7s-1.9-.3-1.9-.3c.4,0,0,0,1,0,.3,0,.8.3.9.3h0ZM34.6,3.4c2.9-.7,3.2-1,3.9-1-3.3,1.1-1.6.7-3.9,1ZM38.5,1.8c1.5-.4,1.7-.4,2.8-.3-1.3.4.2,0-2.8.3ZM54.7,3.6c-4.3-1.5-5-1.4-9-2.4,3.2.6,5.9,1.3,9,2.4ZM30.9,2.9s0,0,0,0c0,0,0,0,0,0ZM45.4,50.1h0,0ZM57.9,21.2h0s0,0,0,0ZM34.4,13.3s0,0,0,0ZM34.4,13.3s0,0,0,0c0,0,0,0,0,0ZM34.7,23.2h0c0,0,0,0,0,0ZM41.1,26.2h0,0ZM41.1,26.2h0,0ZM41.1,26.2h0,0Z"/>
  <path class="cls-2" d="M59.7,44c0,0,.1,0,.2,0h0c-.1,0-.2,0-.2,0h0Z"/>
  <path class="cls-2" d="M70.9,43.6c-.2,0-.4-.1-.6-.2-1.1-.4-1.8-1.4-2.2-2.4-.3-.7-.4-1.4-.5-2.1,0-.2-.3-1.8-.2-1.9.2-.2.3-.4.4-.7.1-.7-.2-1.5-1-1.7-2.5-.6-5.2-.2-7.5,1-1.9,1-3.6,2.8-4.1,5-.3,1.3-.2,2.6.5,3.8.6,1.2,1.9,1.9,3.1,2.3,2.3.5,4.8-.3,6.4-2,.4-.4.7-.8,1-1.3.9,1.4,2.3,2.6,4,2.9.7.1,1.5-.2,1.7-1,.1-.6-.1-1.3-.7-1.5,0,0-.2,0-.3-.1h0ZM63.1,37.2c0,0,0,0,0,0ZM64.8,39.3c0,.1,0,.2,0,.3-.1.9-.4,1.8-1,2.6-.9,1.3-2.6,2.2-4.2,1.9-.5,0-1-.3-1.4-.7-.6-.7-.5-1.7-.2-2.6.4-1,1.2-1.9,2.1-2.4,1.1-.7,2.3-1.1,3.6-1.1.3,0,.6,0,.8,0,0,0,.1,0,.2,0,0,0,0,1.5,0,2.1h0Z"/>
  <path class="cls-2" d="M57.8,41.5c0,0,0,.1,0,.2h0c0-.1,0-.2,0-.2ZM64.8,39.6c0,0,0-.1,0-.2h0c0,0,0,.2,0,.2ZM62.8,43.2s0,0,0,0c0,0,0,0,0,0,0,0,0,0,0,0-.1,0-.2.1-.1,0h0ZM36.7,37.3c0-2-3.1-2-3.1,0,0,1.6,0,3.7,0,5.3,0,1.3.1,2.2,0,3.5-.4.6-.5,1.3.2,1.9l.2.2c.8.7,2.4.5,2.6-.7.6-3.3.2-6.9.1-10.2ZM33.7,29.5c0,.7,0,1.2,0,1.9,0,.8.7,1.5,1.5,1.5.8,0,1.5-.6,1.5-1.5,0-.7,0-1.2,0-1.9,0-.8-.7-1.5-1.5-1.5-.9,0-1.4.7-1.5,1.5Z"/>
  <path class="cls-2" d="M58.6,49.9c-5.4-2.1-11.6-6.2-15.3-10.5.4-.2.8-.4,1.2-.5,4.6-2.1,8.9-4.9,12.8-7.9,1.5-1.2,0-3.9-1.6-2.7-3.2,2.5-6.6,4.7-10.2,6.6-.8.4-1.7.9-2.5,1.3,0-2.7,0-5.4-.1-8.2,0-2-3.1-2-3.1,0,0,3.1.1,6.1.2,9.1-.3.1-.5.3-.6.6-.3.7-.2,1.4.2,1.8.1.2.3.4.4.6v1c0,3.4,0,7.4-.2,10.8-.1,2,2.9,2,3.1,0,.2-2.6.2-5.6.2-8.4,4,3.8,9.4,6.8,14.1,8.2,1.9.6,3.3-1.2,1.4-1.9h0ZM31.6,52.2c-2.9-1.3-6.9-4.3-9-5.7-2.8-1.9-5.3-4.4-7.5-7,0-.2,0-.4,0-.7,5.4-2.3,10.7-5.2,15.6-8.6,1.6-1.1,0-3.8-1.6-2.7-4.4,3-9.1,5.7-14,7.9,0-3.1,0-6.2,0-9.3,0-2-3.1-2-3.1,0,0,2.2,0,6.5,0,10.6-.2,0-.4.2-.6.3-.4.3-.7.8-.7,1.3,0,.2,0,.3,0,.5,0,.3.3.6.5.8.2.3.4.5.6.8,0,3.2-.1,5.9-.1,6.8,0,1.9.3,4.2-.1,6.1-.5,1.9,2.5,2.7,3,.8.5-1.8.2-3.8.2-5.7,0-1.6,0-3.2.1-4.8,2,1.9,4.2,3.7,6.5,5.3,2.6,1.7,6.2,4.6,9.4,4.9,1.5.2,2.2-1.1.7-1.8h0Z"/>
  <path class="cls-3" d="M59.7,44.1c0,0,.1,0,.2,0h0c-.1,0-.2,0-.2,0h0ZM57.8,41.5c0,0,0,.1,0,.2h0c0-.1,0-.2,0-.2ZM64.7,39.6c0,0,0-.1,0-.2h0c0,0,0,.2,0,.2ZM62.8,43.2s0,0,0,0c0,0,0,0,0,0,0,0,0,0,0,0-.1,0-.2.1-.1,0h0Z"/>
  <path class="cls-1" d="M25.9,63.6c.1,0,.3,0,.3-.2,0,0,.1-.2,0-.3,0-.1,0-.3-.2-.3-.1,0-.3-.1-.4,0l-3.8.5,1.4-1.8c0-.1.1-.2.1-.4s0-.3-.2-.3-.3-.1-.4-.1-.3,0-.3.2l-3,3.9c0,.1-.1.2-.1.4,0,.1,0,.3.2.3.1,0,.3.1.4.1.1,0,.2,0,.3-.2l.8-1.1h1.1c0-.1,0,2.9,0,2.9,0,.2,0,.3.2.4.1,0,.3.1.4.1s.3,0,.4-.2c0,0,.1-.2.1-.3v-3.1s2.5-.3,2.5-.3ZM29.6,66.2c0-.1-.1-.2-.3-.3-.1,0-.3,0-.4,0-.1,0-.2.1-.3.3h0c0,0,0-.1,0-.2,0-.2-.2-.3-.4-.5-.2-.2-.3-.3-.5-.4-.3-.2-.7-.2-1.1-.2-.4,0-.7.2-1,.4s-.6.6-.8,1c-.2.4-.3.8-.3,1.2,0,.4.1.8.3,1.1.2.3.5.6.8.7.2,0,.4.2.6.2s.4,0,.5,0c.1,0,.2,0,.3,0,0,.1,0,.3,0,.4,0,.1.1.2.3.3s.3,0,.4,0c.1,0,.2-.1.3-.3l1.6-3.2c0-.1,0-.3,0-.4h0ZM27.9,67.8c-.1.2-.3.4-.5.6-.2.1-.4.2-.6.3-.2,0-.4,0-.7-.1-.2-.1-.4-.3-.5-.5-.1-.2-.2-.4-.2-.6,0-.2,0-.5.2-.7.1-.2.3-.4.5-.6s.4-.2.6-.3.4,0,.7.1c.2.1.4.3.5.5.1.2.2.4.2.6,0,.2,0,.5-.2.7h0ZM33,67.2c-.2,0-.4,0-.5,0-.2,0-.3,0-.5.1s-.3.1-.4.2c0,0,0,0-.1,0h0c0-.3,0-.4,0-.5,0-.1-.2-.2-.3-.2-.1,0-.3,0-.4,0-.1,0-.2.2-.2.3l-1,3.4c0,.1,0,.3,0,.4,0,.1.2.2.3.2.1,0,.3,0,.4,0,.1,0,.2-.2.2-.3l.6-2.1c0-.2.1-.3.3-.5s.3-.2.4-.2c.2,0,.4,0,.6,0,.2,0,.4.2.5.3s.1.3.1.4c0,.2,0,.3,0,.5l-.6,2.1c0,.1,0,.3,0,.4,0,.1.2.2.3.2.1,0,.3,0,.4,0,.1,0,.2-.2.2-.3l.6-2.1c0-.3.1-.7.1-1,0-.3,0-.6-.2-.8-.2-.2-.4-.4-.8-.5h0ZM38.6,68.2c-.1,0-.3,0-.4.1l-2,1.5.3-3.1c0-.1,0-.3-.1-.4,0-.1-.2-.2-.3-.2s-.3,0-.4.1c-.1,0-.2.2-.2.4l-.6,5.2c0,.1,0,.3.1.4s.2.2.3.2.3,0,.4-.1c.1,0,.2-.2.2-.4v-.9c0,0,.5-.3.5-.3l1.3,1.8c0,.1.2.2.4.2.1,0,.2,0,.4-.1.1,0,.2-.2.2-.3,0-.1,0-.3-.1-.4l-1.3-1.8,1.4-1c.1-.1.2-.2.2-.4,0,0,0-.2-.1-.3,0-.1-.2-.2-.3-.2h0ZM43.2,68.6c-.2-.2-.4-.3-.7-.4-.3-.1-.5-.1-.8-.1-.4,0-.7.1-1,.3-.3.2-.6.5-.8.9-.2.4-.3.8-.2,1.3,0,.4.1.8.4,1.2.2.3.5.6.9.8s.8.3,1.3.2c.3,0,.6,0,.8-.2.3-.1.5-.2.6-.4.2-.1.2-.3.2-.4,0-.1,0-.2-.1-.3,0,0-.2-.1-.3-.1,0,0-.2,0-.3,0,0,0-.1,0-.2.1s-.2,0-.3.1c-.1,0-.3,0-.5,0-.2,0-.4,0-.6-.1-.2,0-.4-.3-.5-.5,0-.1-.1-.3-.2-.4l2.8-.2c.1,0,.3,0,.3-.1s.1-.2.1-.3c0-.3,0-.6-.2-.9-.1-.3-.3-.5-.5-.7h0ZM40.6,69.8c0-.2.1-.3.2-.4,0-.1.2-.2.4-.3.1,0,.3,0,.5,0,.2,0,.3,0,.5,0s.3.2.4.3c.1.1.2.3.2.4h0c0,0-2.2.2-2.2.2,0,0,0-.1,0-.2h0ZM47.2,67.4c-.1,0-.3,0-.4,0-.1,0-.3,0-.4.1s-.3.1-.4.2c-.1,0-.2.2-.3.3,0,0,0,.2-.1.3h0c0-.3-.1-.4-.2-.5-.1,0-.2,0-.4,0s-.3.1-.3.2c0,.1,0,.2,0,.4l.7,3.4c0,.1.1.3.2.3.1,0,.2,0,.4,0,.1,0,.3-.1.3-.2,0-.1,0-.2,0-.4l-.4-2c0-.2,0-.4,0-.5s0-.3.1-.4c0-.1.1-.2.2-.3s.2-.1.3-.1c.1,0,.2,0,.3,0,0,0,.2,0,.3,0,.1,0,.2,0,.3-.2s0-.2,0-.4c0-.1-.1-.2-.2-.3h0ZM51.8,66.2c0-.1-.1-.2-.2-.3-.1,0-.2,0-.4,0-.2,0-.3.2-.3.5v2.9c-.1,0-2.2-2.1-2.2-2.1,0,0-.2-.1-.3-.2-.1,0-.2,0-.3,0-.1,0-.2.1-.3.3s0,.2,0,.3c0,0,0,.1,0,.1s0,0,0,0l2.7,2.7c0,0,.2.1.3.2.1,0,.2,0,.3,0,.2,0,.3-.2.3-.5l.2-3.8h0c0-.2,0-.2,0-.3h0ZM54,66.8c0-.2-.2-.3-.2-.5,0-.2,0-.3,0-.4,0-.1,0-.2.1-.3,0,0,.1-.2.2-.2,0,0,.2,0,.3,0,0,0,.2,0,.3,0,0,0,.2-.1.2-.3s0-.3,0-.4c0-.1-.2-.2-.3-.2-.1,0-.3,0-.4,0-.1,0-.2.2-.3.3s-.2.2-.3.3-.1.3-.2.4c0,0,0,.2,0,.3h0c0-.2-.2-.3-.3-.4s-.3,0-.4,0-.2.2-.2.3c0,.1,0,.3,0,.4l1.7,3c0,.1.2.2.3.2s.3,0,.4,0c.1,0,.2-.2.2-.3,0-.1,0-.3,0-.4l-1-1.7h0ZM56.3,63.6c0-.1-.2-.2-.3-.2s-.3,0-.4,0c-.1,0-.2.2-.2.3s0,.3,0,.4l2,2.8c0,.1.2.2.3.2.1,0,.3,0,.4,0,.1,0,.2-.2.2-.3,0-.1,0-.3,0-.4l-2-2.8h0ZM55.5,62.7c0,0,0-.2,0-.3h0c0-.3-.2-.3-.3-.3,0,0-.2,0-.4.2-.1.1-.2.2-.3.3,0,0,0,.2,0,.3h0c0,.3.2.3.3.3,0,0,.2,0,.4-.2s.3-.2.3-.3ZM56.4,61.6c0,.1.2.2.3.2s.2,0,.4-.2.2-.2.3-.3c0,0,0-.2-.1-.3h-.1c0-.2-.2-.3-.3-.3,0,0-.2,0-.4.2-.1.1-.2.2-.3.3,0,.1,0,.2.1.3h.1c0,.1,0,.1,0,.1ZM61.1,66c0-.3-.2-.5-.4-.8l-2.6-3.2c0-.1-.2-.2-.3-.2s-.3,0-.4.1-.2.2-.2.3c0,.1,0,.3.1.4l2.4,2.9c0,0,.1.2.2.3,0,0,0,.2.1.3,0,0,0,.2,0,.3,0,.1-.1.2-.1.3,0,.1,0,.2,0,.3h0c0,.2.2.2.3.2s.2,0,.4-.1c.2-.2.3-.4.4-.6,0-.2,0-.5,0-.7h0ZM28,14.9l-2.9-1.1.6-2.4c0-.1,0-.3,0-.4,0,0-.2-.2-.3-.2s-.3,0-.4,0c-.1,0-.2.2-.2.4l-.9,3.6-1.2-1.9c0-.1-.2-.2-.3-.2-.1,0-.3,0-.4,0s-.2.2-.3.3,0,.3,0,.4l2.5,4.1c0,.1.2.2.3.2s.3,0,.4,0c.1,0,.2-.2.3-.3s0-.3,0-.4l-.7-1.1.3-1.1,2.8,1.1c.1,0,.3,0,.4,0,.1,0,.2-.2.3-.3,0-.1,0-.3,0-.4,0-.1-.2-.2-.3-.2h0ZM26.9,10.5c0,.1.1.2.2.3s.2,0,.4,0c.2,0,.3-.2.3-.2,0,0,0-.2,0-.4h0c0-.3-.1-.4-.2-.4,0,0-.2,0-.4,0-.2,0-.3.2-.3.2,0,0,0,.2,0,.4h0ZM28.4,11.4c0-.1-.2-.2-.3-.3s-.3,0-.4,0c-.1,0-.2.2-.3.3,0,.1,0,.3,0,.4l1.4,3.1c0,.1.2.2.3.3s.3,0,.4,0c.1,0,.2-.2.3-.3,0-.1,0-.3,0-.4l-1.4-3.1h0ZM33.7,11c0-.3-.2-.6-.4-.9-.2-.3-.4-.4-.6-.5-.3-.1-.6,0-1,0-.2,0-.3.1-.5.2s-.3.2-.3.3-.2.3-.2.4c0,0,0,0,0,.1h0c0-.3-.1-.4-.2-.4s-.2,0-.4,0c-.1,0-.2.1-.3.2s0,.2,0,.4l1,3.3c0,.1.1.2.2.3s.2,0,.4,0c.1,0,.2-.1.3-.2,0-.1,0-.2,0-.4l-.6-2c0-.2,0-.3,0-.5,0-.2.1-.3.2-.4.1-.1.3-.2.5-.3.2,0,.4,0,.5,0,.1,0,.3.1.3.3,0,.1.2.3.2.5l.6,2c0,.1.1.2.2.3s.2,0,.4,0c.1,0,.2-.1.3-.2,0-.1,0-.2,0-.4l-.6-2h0ZM38.8,7.3c0-.1,0-.3-.2-.3-.1,0-.2-.1-.4-.1-.1,0-.3,0-.3.2s-.1.2-.1.4l.2,1.6c0,0-.1,0-.2-.1-.2,0-.3-.2-.5-.2-.2,0-.4,0-.7,0-.4,0-.7.2-1,.4-.3.2-.5.5-.6.9-.1.4-.2.8-.1,1.2,0,.4.2.8.4,1.2.2.3.5.6.8.7.3.2.7.2,1.1.2.2,0,.4,0,.6-.2.2,0,.3-.2.4-.3,0,0,.2-.2.2-.3,0,.1,0,.3.2.3.1,0,.2.1.4.1s.3,0,.3-.2c0-.1.1-.2.1-.4l-.6-5.1h0ZM38.1,11.6c0,.2-.2.4-.4.5s-.4.2-.6.3c-.2,0-.5,0-.6-.1s-.4-.3-.5-.5-.2-.4-.2-.7c0-.3,0-.5,0-.7s.2-.4.4-.5c.2-.1.4-.2.6-.3.2,0,.5,0,.7.1s.4.3.5.5c.1.2.2.4.2.7,0,.3,0,.5,0,.7h0ZM43.9,9.3c-.2-.2-.4-.4-.6-.5s-.5-.2-.8-.2c-.4,0-.7,0-1.1.2-.3.2-.6.4-.9.7-.2.3-.4.8-.4,1.3,0,.4,0,.8.2,1.2s.4.6.7.9c.3.2.7.4,1.2.4.3,0,.5,0,.8,0s.5-.2.6-.3c.2-.1.3-.2.3-.4,0-.1,0-.2,0-.3s-.2-.1-.3-.1c0,0-.2,0-.3,0,0,0-.1,0-.2.1,0,0-.2,0-.3,0-.1,0-.3,0-.5,0-.2,0-.4,0-.6-.2-.2-.1-.3-.3-.4-.5,0-.1-.1-.3-.1-.4l2.7.2c.1,0,.3,0,.4,0,.1,0,.2-.2.2-.3,0-.3,0-.6-.1-.9,0-.3-.2-.5-.4-.7h0ZM41.6,9.7c.1,0,.2-.2.4-.2.1,0,.3,0,.5,0,.2,0,.3,0,.5.1.1,0,.3.2.4.3s.1.3.1.4h0c0,0-2.2,0-2.2,0,0,0,0-.1,0-.2,0-.2.2-.3.3-.4h0ZM48.6,10.1c0-.1,0-.2,0-.4,0-.1-.2-.2-.4-.2-.1,0-.3,0-.4,0-.1,0-.3,0-.4,0-.1,0-.3,0-.4.2,0,0-.2.1-.2.2h0c0-.3,0-.4,0-.5,0-.1-.2-.2-.3-.2s-.3,0-.4,0-.2.2-.2.3l-.8,3.3c0,.1,0,.3,0,.4,0,.1.2.2.3.2s.3,0,.4,0,.2-.2.2-.3l.4-1.9c0-.2.1-.4.2-.5,0-.1.2-.2.3-.3.1,0,.2-.1.3-.2.1,0,.2,0,.3,0,.1,0,.2,0,.3.1s.2,0,.3.1c.1,0,.2,0,.3,0s.2-.2.2-.4h0ZM52.8,12.6c0-.3,0-.6-.2-.8-.1-.3-.3-.5-.5-.7-.2-.2-.4-.4-.7-.5-.3-.1-.7-.2-1.1-.1s-.7.2-1,.5-.6.6-.7,1.1c-.2.4-.2.8-.2,1.2s.2.7.5,1c.3.3.6.5,1,.7.3,0,.5.2.8.2s.5,0,.7,0c.2,0,.3-.2.4-.3,0-.1,0-.2,0-.3,0-.1-.1-.2-.2-.2,0,0-.2,0-.3,0,0,0-.1,0-.2,0,0,0-.2,0-.3,0-.1,0-.3,0-.5-.1-.2,0-.4-.2-.5-.4-.1-.2-.2-.4-.3-.6,0-.1,0-.3,0-.4l2.6,1c.1,0,.2,0,.4,0,.1,0,.2-.1.3-.2.1-.3.2-.6.1-.9h0ZM50.3,11.4c.1,0,.3,0,.4,0,.2,0,.3,0,.5.1.2,0,.3.2.4.3.1.1.2.3.2.4,0,.2,0,.3,0,.5h0c0,0-2-.7-2-.7,0,0,0-.1.1-.2.1-.1.3-.2.4-.3h0ZM57.4,14c0-.3-.3-.5-.7-.7-.2,0-.3-.2-.5-.2s-.3,0-.5,0c-.2,0-.3,0-.4,0,0,0,0,0-.1,0h0c0-.2,0-.4,0-.5,0-.1-.1-.2-.2-.3-.1,0-.3,0-.4,0-.1,0-.2.1-.3.2l-1.8,2.9c0,.1,0,.3,0,.4,0,.1.1.2.2.3s.3,0,.4,0c.1,0,.2-.1.3-.2l1.1-1.8c0-.2.2-.3.4-.4s.3-.1.5-.1c.2,0,.4,0,.5.2.2.1.3.2.4.4,0,.1,0,.3,0,.4,0,.2-.1.3-.2.5l-1.1,1.8c0,.1,0,.3,0,.4,0,.1.1.2.2.3s.3,0,.4,0c.1,0,.2-.1.3-.2l1.1-1.8c.2-.3.3-.6.4-.9s0-.6,0-.8h0Z"/>
</svg>